<?xml version="1.0" encoding="UTF-8" standalone="no"?>
<!-- Created with Inkscape (http://www.inkscape.org/) -->

<svg
   width="48.838932mm"
   height="73.117798mm"
   viewBox="0 0 48.838932 73.117798"
   version="1.1"
   id="svg1"
   xml:space="preserve"
   xmlns="http://www.w3.org/2000/svg"
   xmlns:svg="http://www.w3.org/2000/svg"><defs
     id="defs1" /><g
     id="layer1"
     transform="translate(-78.66581,-144.27837)"><path
       style="fill:#d0c035;fill-opacity:1;stroke-width:2.59514"
       d="m 114.43305,216.26464 c 1.4614,0 -2.42485,-1.7423 -2.5739,-2.25183 -0.14904,-0.50952 -0.27588,-33.01901 -0.28187,-38.61182 l -0.0109,-10.16874 2.73405,1.11674 c 1.50372,0.61422 2.71051,1.44557 2.68176,1.84745 -0.0288,0.40188 -0.0506,5.39821 -0.0485,11.10294 0.002,5.70473 -0.0415,37.97931 -0.097,38.08979 -0.0554,0.1105 -3.86513,-1.12453 -2.40373,-1.12453 z m -7.99685,-4.28075 c 1.64556,0 -2.80266,-1.66415 -2.92688,-2.12519 -0.12433,-0.46102 -0.23673,-32.05399 -0.25002,-36.57504 l -0.0241,-8.22008 2.95636,-1.25536 c 1.62599,-0.69045 3.00261,-1.09313 3.05914,-0.89483 0.14307,0.50335 0.14666,49.88224 0.003,50.14414 -0.0642,0.11736 -4.46332,-1.07364 -2.81776,-1.07364 z m -7.609979,-2.17179 c -1.199545,-0.0654 -2.290306,-0.16539 -2.423901,-0.22221 -0.351982,-0.14969 -0.438836,-45.88593 -0.09076,-46.5558 0.161,-0.30983 1.448702,-0.0426 2.861584,0.59375 l 2.568866,1.15709 0.0513,8.74872 c 0.0282,4.81179 -0.13714,36.29507 -0.3674,36.33136 -0.23027,0.0363 -1.453021,0.30542 -2.599657,-0.0529 z m -10.387568,2.33108 c -0.111965,0 -0.04893,-31.41584 -0.06094,-35.93727 l -0.02183,-8.22077 2.440775,-1.17507 c 1.342421,-0.64631 2.508758,-1.14337 2.591864,-1.10461 0.199483,0.093 0.127312,43.7607 -0.07394,44.06385 -0.2418,0.36422 -4.646602,2.37387 -4.875923,2.37387 z m 27.558237,-46.99796 c -1.2288,-0.49356 -2.90602,-1.7276 -3.72715,-2.74229 -1.41326,-1.74639 -1.68013,-1.79014 -4.99872,-0.81941 -3.70599,1.08405 -6.9649,0.79513 -9.653739,-0.85584 l -1.627702,-0.99943 -1.65138,2.24306 c -1.990409,2.70357 -6.160235,4.16042 -9.486959,3.31454 -2.38613,-0.60671 -5.198288,-3.29138 -5.876556,-5.61015 -0.661757,-2.26232 0.317608,-5.73676 2.094975,-7.43225 2.42749,-2.31564 5.158682,-2.8427 10.482845,-2.02295 7.412633,1.14131 15.331886,1.25188 21.456986,0.29958 7.30761,-1.13614 9.39951,-0.94244 11.61571,1.07559 2.97245,2.70665 3.60522,6.22051 1.73533,9.63661 -1.37711,2.51586 -2.01481,3.02173 -4.85735,3.85321 -2.3587,0.68995 -3.89578,0.70662 -5.50629,0.0597 z m 7.71662,-5.05063 c 0.88649,-1.24253 1.15148,-2.50762 0.78656,-3.75519 -0.5954,-2.03545 -3.92705,-3.85911 -5.96252,-3.26371 -1.70733,0.49941 -3.86776,3.89749 -3.42982,5.39465 0.56685,1.93789 2.33802,3.50503 4.16528,3.68548 2.42536,0.23953 2.984,-0.0198 4.4405,-2.06123 z m -5.42512,0.51463 c -1.58862,-0.86957 -2.42281,-3.25881 -1.63823,-4.69216 0.72125,-1.31764 3.69089,-2.18629 5.00853,-1.46505 1.61964,0.88655 2.23148,4.06291 1.01294,5.25868 -1.50804,1.47987 -2.82716,1.75028 -4.38324,0.89853 z m 3.87141,-2.52557 c 0.44018,-1.01793 0.25389,-1.41824 -1.02565,-2.2039 -1.88741,-1.15889 -2.36421,-1.06179 -3.3149,0.67506 -0.55236,1.00909 -0.47359,1.59991 0.3213,2.40992 1.26053,1.28453 3.2736,0.84322 4.01925,-0.88108 z m -30.848103,1.77196 c 1.98388,-3.23101 -1.683645,-7.6355 -5.42722,-6.51779 -2.177356,0.65014 -2.868278,1.39958 -3.312935,3.59385 -0.457789,2.25908 -0.268701,2.68043 1.896073,4.22491 2.19962,1.56936 5.462499,0.94913 6.844082,-1.30097 z m -4.653014,1.03845 c -1.932716,-0.13502 -3.634846,-2.74876 -2.898687,-4.45113 0.842482,-1.94823 4.059183,-2.51439 5.808537,-1.02236 2.668497,2.27601 0.829748,5.73471 -2.90985,5.47349 z m 2.780431,-3.04916 c 0.295976,-1.03935 0.0594,-1.52916 -1.025396,-2.12295 -2.551698,-1.39674 -4.74239,2.045 -2.33529,3.66891 1.385864,0.93496 2.845386,0.26355 3.360686,-1.54596 z m 13.428016,-10.06249 c -19.091273,0.0156 -23.839865,-0.19976 -24.106934,-1.09308 -0.183125,-0.6118 -0.0915,-1.38042 0.203154,-1.70793 0.294663,-0.32751 10.109231,-0.61755 21.81015,-0.64455 11.70093,-0.027 22.49379,-0.0533 23.98415,-0.0584 1.86329,-0.006 2.68322,0.31382 2.62489,1.02504 -0.0467,0.56886 -0.005,1.3066 0.0922,1.63942 0.0974,0.33281 -0.0503,0.65348 -0.3281,0.7126 -0.27783,0.0591 -11.20358,0.11621 -24.27948,0.12686 z"
       id="path1" /></g></svg>
