<?xml version="1.0" encoding="utf-8"?>
<!-- Generator: Adobe Illustrator 26.5.0, SVG Export Plug-In . SVG Version: 6.00 Build 0)  -->
<svg version="1.1" id="Layer_1" xmlns="http://www.w3.org/2000/svg" xmlns:xlink="http://www.w3.org/1999/xlink" x="0px" y="0px"
	 viewBox="0 0 4406 1391" style="enable-background:new 0 0 4406 1391;" xml:space="preserve">
<style type="text/css">
	.st0{fill:#000F46;}
	.st1{fill:#FFFFFF;}
</style>
<rect y="0" class="st0" width="4406" height="1391"/>
<g id="Shield">
	<path class="st1" d="M1225.3,395.7l-125.9-163.5c-18.4,11.5-47.4,22.8-76.6,22.8c-29.2,0-50.2-2.7-74.8-7.6
		c-30.5-6.1-65.1-12.9-120-12.9s-89.5,6.9-120,12.9c-24.7,4.9-45.6,7.6-74.8,7.6c-29.2,0-58.2-11.3-76.6-22.8L430.6,395.7
		c15.6,15,44,48.8,44,96.8c0,32.7-4.8,62.3-10.3,96.6c-7.5,46.1-15.9,98.4-15.9,176.2c0,133.4,85.1,248.4,222,300
		c99.1,37.3,140.5,64.8,157.6,79.9c17.1-15.2,58.5-42.6,157.6-79.9c137-51.6,222-166.5,222-300c0-77.8-8.5-130.1-15.9-176.2
		c-5.6-34.3-10.3-63.9-10.3-96.6C1181.3,444.5,1209.7,410.6,1225.3,395.7z"/>
	<path class="st0" d="M1099.4,232.2l125.9,163.5c-15.6,15-44,48.8-44,96.8c0,32.7,4.8,62.3,10.3,96.6c7.5,46.1,15.9,98.4,15.9,176.2
		c0,133.4-85.1,248.4-222,300c-99.1,37.3-140.5,64.8-157.6,79.9c-17.1-15.2-58.5-42.6-157.6-79.9c-137-51.6-222-166.5-222-300
		c0-77.8,8.5-130.1,15.9-176.2c5.6-34.3,10.3-63.9,10.3-96.6c0-47.9-28.4-81.8-44-96.8l125.9-163.5c18.4,11.5,47.4,22.8,76.6,22.8
		c29.2,0,50.2-2.7,74.8-7.6c30.5-6.1,65.1-12.9,120-12.9c54.9,0,89.5,6.9,120,12.9c24.7,4.9,45.6,7.6,74.8,7.6
		C1052,255,1080.9,243.7,1099.4,232.2 M1101.7,219.1l-7.6,4.7c-16.5,10.3-43.9,21.3-71.4,21.3c-29.7,0-49.9-2.8-72.9-7.4
		c-31-6.1-66-13.1-121.9-13.1s-91,7-121.9,13.1c-23,4.6-43.2,7.4-72.9,7.4c-27.5,0-54.9-11-71.4-21.3l-7.6-4.7l-5.4,7.1L422.8,389.7
		l-5.4,7l6.3,6.1c15.3,14.7,41,45.9,41,89.7c0,31.9-4.7,61.1-10.2,95c-7.5,46.5-16.1,99.2-16.1,177.8
		c0,137.6,87.5,256.1,228.4,309.2c100.6,37.9,140,65.2,154.6,78.1l6.5,5.8l6.5-5.8c14.5-12.9,53.9-40.2,154.6-78.1
		c140.9-53.1,228.4-171.5,228.4-309.2c0-78.6-8.5-131.3-16.1-177.8c-5.5-33.9-10.2-63.2-10.2-95c0-43.8,25.7-75,41-89.7l6.3-6.1
		l-5.4-7l-125.9-163.5L1101.7,219.1L1101.7,219.1z"/>
	<path class="st0" d="M1155.8,490.9c0-43.2,18.7-76.5,36.2-98.2l-99.8-129.5c-18.8,10-42.2,15.7-69.4,15.7c-31.7,0-55-3.1-79.8-8.1
		c-29.4-5.8-62.8-12.4-115.2-12.4c-52.4,0-85.8,6.6-115.2,12.4c-24.8,4.9-48.1,8.1-79.8,8.1c-27.2,0-50.6-5.7-69.4-15.7l-99.8,129.5
		c17.5,21.7,36.2,55,36.2,98.2c0,34.7-4.9,65.3-10.7,100.7c-7.3,45.2-15.6,96.4-15.6,172.1c0,122.5,78.7,228.3,205.5,276.1
		c78.7,29.6,123.5,53.9,148.8,71.5c25.3-17.6,70.1-41.9,148.8-71.5c126.8-47.7,205.5-153.5,205.5-276.1c0-75.8-8.3-127-15.6-172.1
		C1160.7,556.1,1155.8,525.6,1155.8,490.9z"/>
	<path class="st0" d="M540.2,302.5c-49.5-11.3-72.4-18.4-72.4-18.4c0,29.8,15.3,44.6,15.3,44.6s3.3,11,12.7,27.4"/>
	<path class="st0" d="M1156.4,456.9c22.3-12.5,28.2-17.6,36-40.1c0,0,17.6-15.3,25-27.7c20.2-21.4,26.4-47.7,26.6-47.9
		c15.7-18.6,20.8-44.3,20.8-44.3c15.8-24.8,17.8-46.9,17.8-46.9s-36.5,12.2-114.3,37c-11.3,3.6-53,18-53,18"/>
</g>
<path id="Nike" class="st1" d="M566.8,560.3l7.7,19.5l20.5-6l-10,18.1l17.5,13.5l-21,1.8l1,21.3l-15.3-13.8l-16.5,13.8l1.5-20.3
	l-20-4.5l17.8-12.5l-9.8-18.3l18.8,6.7L566.8,560.3z M679.5,610.7l-18.8-6.2l9.7,18l-17.8,12.3l20.6,4.5l-2,20.6l16.3-13.8
	l15.8,13.8l-1.3-21.3l21.1-1.8l-17.2-13.2l9.7-18.3l-20.5,5.5l-7.5-19L679.5,610.7z M536.8,733.6l-18.8-6.2l9.5,17.8L510,757.4
	l20,4.5l-1.7,20.5l16.5-14l15.3,14l-1-21.5c0,0,21-1.8,21-1.8l-17.3-13.5l9.8-17.8l-20.6,5.7l-7.5-19.3L536.8,733.6z M680.3,741.1
	l-18,0.3l15,11.3l-5.5,18.3l15.2-11l15.3,11l-5.7-18.3l15-11.5H693l-6-17.8L680.3,741.1z M678.7,867.3l-18.8-6.5l9.5,18l-17.8,12.3
	l20.3,4.5l-1.5,20.5l16.3-14l15.5,14.3l-1.5-21l21.3-2.5l-17.3-13.5l9.8-17.8l-20.3,5.8l-7.5-19.5L678.7,867.3z M861.9,916.1
	c11.4-5.7,14.4-11.2,18.1-18.3l0.3-0.6c0.8-1.6,1.5-3.2,2.2-4.9c1.2-2.9,2.6-6.1,5.1-10c0-0.1,0-0.2,0-0.2
	c-61.6-70-105-152-120-180.6c-0.1-0.2-0.4-0.1-0.4,0.1c-0.9,24.8-0.4,76.4,17,110.5c9.8,19.1,11.4,21,37.6,53.2l4.1,5.1l2.9,3.5
	c0.1,0.2,0,0.4-0.2,0.3c-3.3-1.6-8.5-5-8.5-5c-7.7-4.4-25.8-18.6-41.7-41.6c-0.1-0.2-0.4-0.1-0.4,0.1c-0.8,33.9,16.6,65.8,28.2,78.3
	c11.2,12.1,27.2,13.9,35.8,13.9C849.7,920,857.1,918.5,861.9,916.1z M974,937.6c15.4-0.9,34.4-6.9,41.2-16.7
	c2.1-2.6,5.5-6.2,13.4-10.7c4.8-2.5,9.4-4.1,13.5-5.5c12.1-4.1,20.1-6.8,20-28.9c-85.2-51-119.8-102.3-117.5-102.6
	c0,0,14.8,15,36.3,32.4c18.8,15.2,58.5,48.4,93.2,63.9c2.4,1.2,0.1,33.6-19.5,42.4c-1.7,0.8-4.2,1.8-7.2,2.9
	c-10.2,3.8-25.6,9.5-24,19.9c0.5,0.9,3.8,2.2,10.7,2.2c0,0,0,0,0,0c15.3,0,35.2-6.1,42.8-19.6c3-5.4,5.2-10.3,7.2-14.6
	c6.2-13.5,10-21.8,27.6-25.6c-7.4-7.9-46.3-49.4-64.3-68.7c-19-20.4-32.8-43.4-34.3-45.9c0-0.1-3.1-5-7.7-8.1
	c-19.3-15-40.2-19.1-58.7-22.7c-20.3-3.6-30.4-7.4-37.3-14c-11.6-10.8-9.7-28.1-8.9-34.6c0-0.4,0.1-0.8,0.1-1.2
	c-1.1,1.2-2.9,4.1-3.7,5.3c-3,4.9-7.6,12.2-16.1,12.2c-0.9,0-1.9-0.1-2.9-0.3c-6.7-1.2-11.4-4.5-15.1-17.5c-1-3.4-2.9-4.5-3.7-4.6
	c-1.1,0-1.6,0.4-1.9,0.7c-3,3.2-2.3,14.9-1.2,20.1c0.3,2.3-0.4,3.6-1,4.3c-0.8,1-2.1,1.5-3.6,1.5c-1.8,0-3.4-0.8-4.1-2
	c-2.2-3.2-4.3-6.7-6.1-10.2c-1.4,5.3-4.1,11-10.3,11.1c-4.5,0-8.5-3.6-12.8-7.4c-4.8-4.3-8.8-7.6-12.2-7.6c-1.1,0-2.1,0.3-3.2,1
	c-1.8,1.2-3.7,1.8-5.6,1.8c-2.4,0-4.5-1-6.1-2.9c-5.8-7.5,1.6-17.2,4.5-20.4c-1.9-1.3-6.1-2.6-11.3-2.6c-3.9,0-13.3,0.8-17.4,7.8
	c-1.3,4.3,1.2,9.2,3.2,13.2c7.5,16.5,66.7,122.3,127.5,189.4c3.9,4.5,4.3,8.5,1.4,12.4c-8.2,11.5-11,20.6-8.3,27
	c3.4,8.1,14.3,9.9,14.4,9.9c3,0.6,5.8,0.8,8.2,0.8c12,0,15.9-6.5,20.4-14c5.8-10.4,11.5-12.6,15.3-12.6c2.1,0,3.6,0.6,4.2,0.9
	l0.2,0.1c1.4,0.7,3.2,2.8,3.8,5.5c0.5,2.1,0.6,5.5-2.1,9.3l-0.1,0.1c-2.5,2.8-7,4.9-10.9,6.8c-3.9,1.9-8.3,4-8.1,5.6
	c0.6,2.2,15.7,10.8,36,10.8C972.7,937.6,973.3,937.6,974,937.6z M869.2,744.1c10.7,15.6,39.3,57.2,88.3,113c0,0,3.4,4.6-1.5,13.9
	l-2.2,3.3l-1.6-3.5c0,0-1.5-3.4-4.7-7c-59.9-68.7-85.6-127.7-85.3-127.9C862.2,736,863.5,735.9,869.2,744.1z M1016.6,749.8
	c2.5-1.8,3.8-6.6,3.8-14.5c0-4.3,0-8.4,2.6-11.8c2.5-3.3,5.9-5.2,10-5.6c-4.4-2.6-9.6-5.5-15.5-8.7c-14.7-8-36.4-19.8-62.7-39.2
	c6.3,8.5,14.4,17,23.6,25l3.3,2.9c-0.2,0.3-3.8-0.9-3.8-0.9c-0.3-0.1-7.3-2.5-11.7-5.3c-0.1-0.1-0.3-0.2-0.5-0.3
	c-12.8-7.3-25-19.1-34.5-33.5c-0.1-0.2-12.6-20.6-27.8-55.1c-4.5-10.3-28.9-51.7-38.3-60.5c-14.7-3-33.5-3.2-38.9-3.2
	c-2.9,0-5.4,0.1-7,0.2c-11.2,0.7-19.6,2.6-24,4.3c-19.2,53.2-25.4,90.6-27.1,112.7l-0.2,1.8c4.9-2.2,10.4-3.4,16-3.4
	c10.3,0,19.5,4,21.4,9.4c1.5,4.9-0.7,7.5-2.9,10c-1.3,1.6-2.7,3.1-3.3,5.4c2.2-1.1,4.5-1.7,6.9-1.7c7.5,0,13.9,5.7,18.6,9.9l0.1,0.1
	c3.7,3.4,5.3,4.4,6,4.8c0.7-1.1,2.5-5.4,3.5-20.3c0-0.1,0-0.2,0-0.2c-7.8-46,16.2-78.5,16.2-78.5s-15.6,52.8-4,85.1
	c2-8,6.7-10.6,10.6-11.2c0.6-0.1,1.2-0.2,1.8-0.2c5,0,11.1,3.6,13.4,11.6c2.8,9.8,4.7,10.1,7.5,10.7c0.4,0.1,0.8,0.1,1.1,0.1
	c2.8,0,4.6-2.3,8-7.7c2.8-4.5,6.3-10.2,12.6-10.2c0.7,0,1.5,0.1,2.3,0.3c3.1,0.7,7.3,3.9,6.5,9.9c-4.1,31.8,10.1,34.6,38.4,40.1
	c15.6,3.1,34.9,6.8,53.4,18.1c-2.1-4.3-5.6-8.2-8.1-10.9c-1.1-1.2-1.9-2.1-2.5-2.9l-1.3-1.8l2.2,0.2c0.2,0,18.8,1.8,23.1,25.3
	c0,0,0,0,0.1,0C1015.6,750.3,1016,750.2,1016.6,749.8z M1036.5,726.6c-1,0-2,0.1-3.1,0.4c-3.7,0.9-4,3.8-4.1,9.1
	c-0.1,3.9-0.2,8.6-2.7,13c11.1-2.4,18.1-8.1,18-14.9c-0.1-2.5-1.2-4.7-3-6.1C1040.3,727.2,1038.5,726.6,1036.5,726.6z M904.6,582.5
	c0.2,0.3,0.6,0.3,0.9,0c8-9.6,2.5-30,0.8-37.7c11.3,6.8,26.8,11.6,35.3,12.4c1-9.7-1.5-19.6-5.7-31.2c12.7,9.2,31.6,14.7,38,14.4
	c1.4-10.2-6.1-29.4-6.6-32.1c4.8,1.9,16.1,8.3,25.6,9.4c2.5-6.2,4.1-16.3,3.2-26.1c0,0-17.6,3.4-26.4,3.4c-2.4,0-4.6-0.1-6.5-0.3
	c-4.9-0.4-13.9-2.1-22.8-4c-5.1-1.1-10.3-2-14.8-2.8c-1.8-0.3-3.6-0.6-5.2-1c-5-0.9-9.2-1.5-15.7-2.1c-2.4-0.2-7-0.4-9.1-0.4
	c-0.1,0-0.1,0-0.1,0.1c-3.1,19.3-14.4,36.4-20.5,45.7c-0.9,1.4-1.7,2.6-2.3,3.5c0,0,0,0.1,0,0.1
	C884.7,550.4,901.6,577.8,904.6,582.5z M693.4,461.7c-4.4-3.9-6-8.5-4.6-13c-8.1-1-22.1-3.6-33.3-9.8c-4.9,1.1-20.7,4.3-40.5,4.3
	c-4.4,0-9-0.1-13.9-0.4c0.4,0.3,0.8,0.5,1.2,0.8c4.2,2.7,8.4,5.5,12.6,6.3c1.7-0.3,5.7-0.6,15.8-1.3c1.5-0.1,3.1-0.2,4.6-0.2
	c10.6,0,22.2,3.7,35.4,11.4c1.1,0.4,11.9,4.7,17.6,7.6C689.2,466.3,691,464.3,693.4,461.7z M1155.2,446.9c9-2.4,19.2-11.6,24.9-22
	c-11.4,6.7-20.8,9.4-31.7,9.4c0,0,0,0,0,0c-2.1,0-4.4-0.1-6.9-0.3c-1.6,2.6-3.4,7.5-12.2,11.8
	C1138.2,449.4,1150.7,448.1,1155.2,446.9z M1011,449.1c4.6-0.5,8.7-1,12.3-1.4c23.4-2.7,27-3.1,30.6-5.4c0.5-0.3,1.3-1.1,2.2-2.1
	c2.9-2.9,7.2-7.2,12.1-7.8c0.7-0.1,1.4-0.2,2-0.3c0.6-0.1,1.3-0.2,1.9-0.3c2.1-0.3,3.9-0.7,5.5-1.9c4.1-2.9,7.9-5.6,11.7-5.8
	c0.1,0,0.2,0,0.2,0c3,0,4.3,2.9,4.6,3.9c0.8,1.5,0.7,5.1,0.5,7.7c1-0.2,2.3-0.6,3.5-1.1c0.3-0.1,0.7-0.3,1.2-0.5
	c1.5-0.6,3.6-1.5,5.5-2.1c1.3-0.4,2.3-0.6,3.3-0.6c2.2,0,3.5,1.1,4.8,2.5c2.1,2.2,3.3,5.3,3.6,7.6c6.4-1.8,12.2-6.1,14.7-9.2
	c-9.6-2.7-22-8.6-29.5-17.9c-3.2-4-4.4-7.9-4.7-10.8c-34.2,13-92.6,26-111.6,30c0.6,2.2,0.6,4.4,0,6.5c-0.5,1.8-1.4,3.5-2.8,5.1
	c2.1,1.8,6.7,6.3,6.7,6.3S1008.1,449.4,1011,449.1z M706.4,438.8c-0.8-1.5-1.4-3.5-1.5-5.3c-22.4-13.5-48-17.6-62.5-18.9
	c4.2,6,9.3,10.7,15.7,14.7c14.7,9.1,38,10.5,41.2,10.7C700.5,439.7,703.4,439.2,706.4,438.8z M644.4,431.3
	c-5.5-4.7-9.8-10.1-13.6-16.8c-7.1,0.8-14.1,1.3-21,1.3c-21.7,0-42.9-4.3-64.6-13.1c10.8,11,29.6,25.8,45.6,29.2
	c7.7,1.2,15.8,1.8,24.1,1.8C627,433.7,637.3,432.5,644.4,431.3z M1099.8,392.1L1099.8,392.1c0.3-0.5,2-2.7,4.8-4.8
	c1.5-1.2,3.1-2.2,4.8-2.9l1.5-0.6c6.1-2.7,12.5-5.4,16.2-8.2l1.1-0.8c2.8-2,5.4-4,7.4-7.8c-10.3-0.5-19.2-3.1-25.1-5.4
	c-62.5,13.6-122.1,37.2-141.1,45.1c4.2,3.9,5.1,9.1,2.8,15.8c2.8,0.2,5.3,1,7.5,2.5C989.8,422.8,1064.6,406.9,1099.8,392.1z
	 M1179.7,413.5c7.5-5.5,17.5-12.9,26-24.1c-21.6,9-38.5,10.9-61.4,11.1c-0.6,0-1.1,0-1.6,0c-16.4,0-28.1-2.6-33.8-4.2
	c-0.6,0.6-1,1.1-1.2,1.3c-0.3,0.5-2.8,4.9,1.8,10.5c7.7,9.5,22.5,15,30.6,15.9c2.5,0.3,5.2,0.5,8.1,0.5
	C1155,424.6,1165.7,423.5,1179.7,413.5z M626.2,405.3c-2.3-5.3-4.1-10.7-5.9-16l-0.3-0.7c-4.4-12.9-15.6-16.5-16.8-16.8
	c-53.3-11.2-91.2-28.7-110.2-42.1c6.7,15.5,13.4,29.4,24.2,41.2c13,14.3,30.5,24,54.9,30.5l0.2,0c7.5,1.9,14.9,3.2,22,3.8
	c5.5,0.5,11,0.7,16.3,0.7C617.4,406.1,622.7,405.7,626.2,405.3z M955.7,401.5c0.3,0,0.5,0,0.8,0c7.9-3.5,69.5-29.9,139.1-46.5
	c-14.5-6-28.1-8.8-42.5-8.8c-10.9,0-22.4,1.6-35,5c-40.3,10.7-65.6,26.7-77.9,36.2c2.1,0.5,3.9,1.4,5.6,2.7
	c4.2,3.2,6.4,7.3,6.4,11.7C953.4,401.6,954.6,401.5,955.7,401.5z M1145.3,390.5c14,0,34.9-1.6,54.3-8.9
	c18.4-7.2,28.1-26.6,31.6-35.5c-26.9,14.4-51.8,18.5-85.2,20.7c-2.9,9-8.1,12.8-12.2,15.8l-1,0.8c-2.8,2.1-6.6,4.1-10.2,5.8
	C1127.3,389.8,1135.2,390.5,1145.3,390.5C1145.3,390.5,1145.3,390.5,1145.3,390.5z M719.3,479.7c12-10.6,17.4-13.6,32.8-20.2
	c9.5-12.4,22.6-19.8,36.3-20.7c-15.9-12.6-26.4-25.5-26.5-45.4c-0.1-19.8-11.6-40.1-22.1-47.6c-16.8-12.8-39.2-13.9-70.3-15.3
	c-21-1-44.8-2.1-72.9-7c-0.4-0.1-48.7-9.8-62.2-12.9c-0.4-0.1-35.8-7.3-54.9-13.2c2.6,8.5,10,17.2,22,26c1.5,1,37,24.9,101.8,38.6
	l0,0l0.7,0.2c0,0,4.6,1,6.2,1.3c55.1,10.6,66.7,13.9,67.8,14.2c17,4.8,30.9,11,36.1,16.1c2.4,2.2,5.2,5.6,5.4,5.8l2.4,2.9l-10.6-4
	c-12.5-4.7-22.4-8.1-35.8-11.4c-0.4-0.1-9.7-2.8-51-10.9c2,2.9,3.7,6.1,4.8,9.5l0.3,0.7c2.1,6.1,4.2,12.4,7,18.3
	c10.3,0.4,42.8,3,71.4,19.5c3.8-4.7,9.8-5.7,14.3-5.7c0.2,0,0.5,0,0.7,0c-0.2-3.9,1-7.5,3.5-10.4c3.8-4.4,9.5-4.9,13.4-4.9
	c0.9,0,1.8,0,2.5,0.1c1.1-1.9,3.9-3.9,5.6-5c2.5-1.6,7.6-2.8,7.9-2.8l2.8-0.6l-3.7,4.6c-4.8,6.8-3.6,12-3.6,12.1l0.4,1.4l-4.9-0.6
	c-1.1-0.1-2.2-0.2-3.5-0.2c-4.6,0-8.4,0.9-9.6,2.3c-2.7,3.1-0.5,7.4-0.5,7.5l3.7,7.3l-1.8-0.2c-1.3-0.1-2.7-0.3-4-0.4
	c-2.9-0.3-5.9-0.7-8.5-0.7c-4,0-6.4,0.8-7.4,2.5l-0.1,0.3c-1,1.8-2.3,4.3,6.8,13l1.5,1.5l-2.1,0.3c-0.1,0-13.2,1.7-19.6,4
	c-1.7,0.6-2.7,1.5-2.9,2.5c-0.1,0.6,0,2.6,4.5,5.2l4.7,2.8c0,0-10.5,5.1-10.7,11.9L719.3,479.7z M620.2,339.8c-0.1,0,0-0.1,0-0.1
	c5.2,0,29.5,4.3,43.5,5.8c7.2,0.9,43.9,5.5,54.7,12c10.7,6.3,15.9,17.5,19.3,26.5l1.8,4.9c0,0-1.5,0-7.4-6.2
	c-4-5-9.9-12.5-18.7-16.9C688,353.6,646.5,353.9,620.2,339.8z M1139.5,357.4c0.8,0,1.6,0,2.4,0c20.1-0.8,60-5.7,81.8-18.7
	c18.1-9.7,23.5-23.6,28.1-36.1c-0.2,0.1-0.8,0.3-0.8,0.3c-4.8,2-10.3,4.3-19.1,7.3l-4.3,1.4c-11.4,3.9-28.6,9.1-45.9,13.8
	c-29,7.9-54.8,19.9-68.7,27C1118.9,354.5,1128.6,357.4,1139.5,357.4L1139.5,357.4z M860.4,392.4c7-6.1,6.8-10.9,6.1-13.9
	c-3.7-9.2-10.7-14.9-20.8-16.8l-46.5-6.4c-0.1,0.1-0.4,0.6-0.5,0.8c0.4,0.2,0.9,0.5,1.4,0.7c5.2,2.6,16,8,19.9,19.4
	c1.2,3.4,3.3,3.6,15.5,4.3l3.7,0.2c2.9,0.2,4.2,0.3,6.4,0.5c5.2,0.6,9.1,4.9,9.9,5.7c0.7,0.8,2.9,3.6,3.4,6.8L860.4,392.4z
	 M977.1,454.7c0.8-0.2,1.6-0.4,2.3-0.6c-5.3-5.9-11.8-10-11.8-10l3.6-1.8c2.9-1.5,4.7-3.2,5.1-4.9c0.2-0.8,0-1.5-0.5-2.6
	c-1.3-2.6-3.9-3.9-7.6-3.9c-1.5,0-2.9,0.2-3.8,0.4l-8.4,1.3l3.3-6.2c5.7-11.2,2.6-13.3,1.2-14.3c-2-1.4-4.1-2.1-6.4-2.1
	c-2.5,0-4.6,0.8-6.4,1.5c-0.5,0.2-1,0.4-1.4,0.5l-8.6,3.1c0,0,3.1-6.7,3.3-7.1c2-4.3,2.4-7.3-1.2-10.2c-1.5-1.1-3.1-1.7-4.8-1.7
	c-1.7,0-3.5,0.6-5.3,1.8l-8.1,5.5l0.4-2.3c1.4-8.4-6.9-20.1-6.9-20.1s4.7,0.4,11.1,3.9c0.4,0.2,0.7,0.4,1,0.5
	c11.5-10.7,38-30.1,88.4-43.5c13.5-3.6,25.8-5.3,37.5-5.3c16.5,0,32,3.4,48.8,10.7c9.5-5.1,41-21.3,77.4-31.2
	c19-5.2,37.5-11.4,44.6-13.8l12.2-4.4c11.6-4.6,25.6-12.5,32.3-33.4l-145.8,48.8c-21.8,8.7-61,11.9-95.7,14.8
	c-16.8,1.4-32.6,2.7-44.3,4.5c-64.5,11.2-71.2,42.3-74.8,59.1c-0.2,1.1-0.4,2.1-0.7,3c-2.9,15.5-9.2,27.7-18.6,36.3
	c2.2-0.1,4.8-0.1,6-0.1c0,0,0,0,0,0c6.8,0.2,11.6,2,16.7,4.2c1.8,0.8,3.7,1.6,5.6,2.5c1.5,0.7,3.1,1.4,4.7,2.1
	c7.2,3.2,16.9,6.1,32.1,10.4l1.2,0.3c3.8,1.1,6.8,1.9,9.4,2.8c2.4,0.8,6.3,2.4,7.3,2.8C973.4,455.6,975.3,455.2,977.1,454.7z
	 M863.8,359.1c3.6-1.9,3.9-7.3,3.4-9.1c-1.5-5.2-5.4-9.1-11.5-11.6c-3.3-1.2-7.6-1.7-12.7-1.7c-15.8,0-36,6-40.5,11.8l44.8,5.1
	c2.3,0.3,8.3,1.6,14.5,6C862.6,359.5,863.2,359.3,863.8,359.1z M598,459.6c-2.5-2.5-6.4-3.9-9.5-4.2c-6.4-0.4-13.5,2.2-19.6,7.9
	c13.8,0.8,15.9,6.9,23.3,1.1L598,459.6 M601.8,463.5l-4.7,5.3c-5.6,6.8,0,8.9,0.5,21.8c5.5-5.5,8.1-12.2,7.9-18.1
	C605.3,469.5,604.1,465.8,601.8,463.5 M584.3,479.3l-3.9,5.9c-4.5,7.6,1.4,8.8,3.7,21.5c4.6-6.3,6.3-13.2,5.1-19.1
	C588.7,484.8,586.9,481.3,584.3,479.3 M571.7,499.9l-3,6.2c-3.4,7.9,2.4,8.4,6.3,20.3c3.7-6.6,4.4-13.6,2.5-19.1
	C576.7,504.6,574.5,501.5,571.7,499.9 M578.8,475.7c-3-1.7-7.2-2-10.3-1.4c-6.2,1.3-12.4,5.9-16.6,13c13.5-3,17.2,2.2,22.7-5.4
	L578.8,475.7 M565.2,496.9c-3.4-1.1-7.6-0.6-10.6,0.7c-6,2.6-11.3,8.4-14.1,16.4c12.9-5.7,17.7-1.2,21.7-9.9L565.2,496.9
	 M560.6,516.1c-2.3,1.7-3.9,4.7-4.5,7.2c-1.1,5.1,0.2,11.2,4.1,16.8c2.3-11.1,7.4-12.1,3.6-18.8L560.6,516.1 M657.2,490.8l-1.6,7.4
	c-1.7,9.3,4.7,8.3,11.8,20.2c2.3-8,1.3-15.6-2-21C663.7,494.6,660.6,491.8,657.2,490.8 M652.1,489.3c-3.1-0.9-7-0.3-9.7,0.9
	c-5.4,2.5-10.1,8-12.4,15.4c11.6-5.6,16.1-1.6,19.6-9.7L652.1,489.3 M646.1,512.1c-3-1.4-6.9-1.4-9.7-0.5
	c-5.7,1.7-11.1,6.4-14.6,13.4c12.3-3.8,16.2,0.8,20.8-6.7L646.1,512.1 M633.8,532.8c-2.7-1.7-6.5-2.2-9.3-1.7
	c-5.7,0.9-11.6,4.8-15.8,11.1c12.4-2.1,15.5,2.9,20.9-3.8L633.8,532.8 M651.6,514.7l-3.6,6.7c-4.2,8.5,2.2,9.3,5.8,22.6
	c4.4-7.1,5.6-14.6,3.8-20.8C656.7,520.2,654.5,516.6,651.6,514.7 M638.9,536l-4.9,6c-5.9,7.6,0.3,9.8,1.3,23.8
	c5.8-6.2,8.5-13.6,8-20.1C642.9,542.5,641.4,538.5,638.9,536 M624.5,550.1l-6.2-0.5c-7.7-0.3-6.2,4.8-15,11.9
	c6.7,0.9,12.8-0.8,16.8-4.1C622.2,555.8,624.1,552.9,624.5,550.1 M868.2,491.3c1.3,12.7,2.4,23.6-2.9,33.4l0,0.1
	c-0.9,2.3-2.5,5.9-3.3,7.4c-15-2.6-31.5-2.8-36.2-2.8c-2.9,0-5.4,0.1-7.2,0.2c-7.1,0.4-13.7,1.4-19.2,2.8c0.7-2.3,1.9-5.8,4.1-8.7
	l1.2-1.7l-2.1,0.1c-1,0.1-2,0.1-3,0.1c-8.3,0-13.2-2-17-6.9c-2.6-3.6-3.3-8.1-1.8-12c1.2-3.4,3.9-6.8,6.4-10.1
	c2.2-2.9,7-10.5,8.6-13.8c1-2,2-4.1,2.9-6.4c2.1,2.8,5.2,4.7,9.5,5.7c2.5,0.6,4.7,0.9,6.9,0.9c4.2,0,8.6-1,14.1-3.3
	c-7.3,6.5-27.8,10.6-27.8,10.6c-0.5,0.6-0.2,1.4,0.5,1.7c0.2,0.1,0.4,0.1,0.5,0.2c2.7,0.7,5.3,1,8.1,1c8.6,0,16.5-3.4,25.1-7.5
	c13.9-7.3,30.9-30.5,31.6-31.5c1-1.4,2.4-2.6,3.8-3.4c-6.1,10.8-4.8,22.6-3.5,35C867.6,485.3,867.9,488.3,868.2,491.3z M855.9,504.9
	c-3.4,6.4-7,12-19.5,12.5c-15.4,0.7-19.3-10.3-19.3-10.3c0.9,4.8,4.6,19,19.4,18.4C855.4,524.7,855.9,504.9,855.9,504.9z
	 M876.8,508.5l0.9-1.2c1.1-1.4,2-3.1,2.1-3.4c5.6-10.3,6.5-18.4,6.9-21.9l0.1-0.5c0,0,0.8-6.4,3.3-6.4c16.1,0,35.5,3.2,50.7,6.2
	c4,0.8,8.2,1.6,12.2,2.4c5.2,1.3,10.9,1.9,16.9,1.9c8.6,0,17.9-1.3,27.5-3.9l39.4-11.6c1.6-0.4,3.2-0.7,4.8-1.1
	c5.7-1.3,11.2-2.7,17.6-2.7c1.8-0.1,5,0.4,6.7,0.4c13.8,0,29.9-6.9,34.6-10.5c4.9-3.8,5.8-7.1,6.5-11c0.3-1.8,0.2-2.9-0.3-3.5
	c-0.3-0.3-0.7-0.5-1.2-0.5c-1.2,0-3.2,0.8-5.8,1.8c-3.6,1.4-20.6,6.1-24.2,6.3c0.7-1.2,3.2-3.6,5.6-5.4c3.2-2.4,6.2-4.7,6.6-9
	c0-0.8-0.6-1.1-1.1-1.1c-0.3,0-0.8,0.3-1.1,0.4c-1.3,0.7-2.5,1.6-3.7,2.5c-2.9,2.1-5.9,4.3-9.9,4.3c0,0-0.2,0-0.3,0
	c-0.1,0-0.1,0-0.1,0c-4.3,0.4-6.8,2.9-9.4,5.5c-2.8,2.8-5.7,5.7-11.1,6.4l-56.5,7.4c-4.3,0.5-8.5,1.4-12.5,2.3
	c-3.9,0.9-8,1.8-12,2.3h0c-7.9-3.1-16.9-5.6-25.6-8c-12-3.4-23.3-6.5-31.4-10.9c-1.1-0.6-11.5-6.1-21.8-6.1c-2.4,0-4.7,0.3-6.7,0.9
	l-0.1,0l-0.1,0c-1.2,0.8-12.1,8.6-10.7,30c0.6,8.7,1.2,14.9,1.8,19.9c0.3,2.9,0.6,5.3,0.8,7.7c0,0.5,0.3,5,0.2,8.5L876.8,508.5z
	 M794.6,446.8c-0.5,0-1,0-1.5,0c-12.6,0-24.2,6.7-34.6,19.8l0,0c-13.5,5.7-23.9,12.6-36.2,22c-1.8-0.2-16.5-5.7-30.7-11
	c-8.6-3.2-17.5-6.6-24.3-9c0,0,0,0,0,0l0,0c-9.6-6.7-21.3-10.8-28.5-11.8c-1.3-0.2-2.8-0.3-4.6-0.3c-7.6,0-17,1.6-19.9,3
	c-0.4,0.1-1.1,0.5-1.2,1.3c0,0.4,0.1,0.8,0.4,1.1c0.4,0.4,1,0.6,2.1,0.6c1.1,0,2.6-0.2,4.4-0.5c2.4-0.3,5.4-0.8,8.4-0.8
	c8.6,0,13.5,3.4,15.6,10.7c-3.1,0.6-4.2,1.5-5.3,2.5c-1.2,1.1-2.3,2.1-6.3,2.7l-1,0.2l-0.1,0c-0.7,0.2-1.2,0.6-1.2,1.1
	c-0.1,0.7,0.5,1.3,0.7,1.4c0.9,0.7,2.3,1.1,4,1.1c1.7,0,3.6-0.4,5.1-1.1c1.6-0.8,3.5-1,5.5-1.2c2.8-0.3,6-1.1,9.5-3
	c10.4,4.4,20.4,10.9,29.9,19.5c6.4,5.8,13.7,12.5,27.8,19.9c0.9,0.4,2.2,0.8,3.7,0.8c2.4,0,5.1-1,8.2-3.1
	c8.7-5.1,53.7-31.1,58.2-33.4l0.1,0l0.1-0.1c5.4-5.2,8.5-16.1,8.9-17.4c0.2-0.7,0.4-1.6,0.7-2.5c1.1-3.9,2.6-9.2,2.8-12l0.1-0.5
	L794.6,446.8z M889.6,377.5c-3.4,3.3-6.6,4.3-9,4.3c-2.7,0-5.2-0.7-7.3-1.6c-0.1,1.1,0.2,2.5,0.6,3.5c1,2.6,3.6,4.1,6,4.1
	C885.3,387.8,889.6,382.8,889.6,377.5z M872.3,371.1c4.4,2.8,8.2,3.5,11.4,2.1c4.2-1.9,6-6.8,6.1-7.4c0.6-3.9-1.1-4.5-3.4-5.2
	c-2-0.7-4.4-1.5-4.6-5c0-1.3-0.4-2.1-1.1-2.5c-1.2-0.8-3.4-0.2-4.5,0.3c-0.7,7.7-4.7,11.3-7.6,13L872.3,371.1z M828.2,331.7
	c0,0-5.3-2.4-11.1-2.9c-7.1-0.6-11.8,0.9-14.5,2.2c-4.4,2.1-6.5,7.6-4.2,11C805.2,336.5,816.1,333.3,828.2,331.7z M871.7,435.7
	c-2.4-0.8-3.9-1.2-6.1-2.1c-15.9-6.3-9.8-21.8-12-34.1c-0.3-2.5-1-5-4.2-4c-1.5,0.4-7.2,6.6-16.2,3.4c3.5-1.1,6.7-2.2,8.9-3.9
	c3-2.3,4-5.3,2.5-7.4c-0.9-1.5-3-1.8-4.7-1.3c-1.5,0.5-3.2,2.9-2.7,5.3c0,0-3.6,0.4-7.4-3.2c-1.6-1.5-4.3-2-7.4-1.9
	c-4.4,0.3-7.2-0.8-8.8-5.7c-1.9-8.2-10.6-14.8-17.6-18.5c-1.8,4.6-3.5,7.7-3.4,13.2c0.5,3.7,7.1,3,9.5,3.4c6.8,1.7-4.4,6.5-4.3,9.8
	c-0.7-1-1.2-3-0.2-3.9c1.7-2.4-1.9-2.2-2.8-3.4c-0.2,6.5-5.3,15.6-4.9,17.9c0.1,0.6,5.8,1,5.8,1c1.5,1.4,0.5,4.1,0.7,6
	c0,0.1,0.2,0.2,0.3,0.2c0.4,0.2,2.4,0.4,3,0.4c0.5,0.1,1,0.5,1,1c0,0.6-0.4,1-1,1c0,0-0.8,0-1.7-0.2c0.4,1.7,0.3,3.5,2.7,4.5
	c1.2,1.7-0.5,6.4,2.6,7.2c8.6,2,19.8-7.7,29.1-14.2c-1.4,5.5-9.1,11.4-11,16.9c0,0-0.3,8.8-2.2,14.5c-2.3,6.9-9.7,5.6-15.2,8.4
	c0,0.4-0.1,0.9-0.2,1.5c-0.1,0.8-0.3,1.7-0.3,2.7l0,0.5l0,0c0,0.2-0.1,0.5-0.1,0.9c-0.4,3.6-1.5,13.3,4.7,16.6c2,1,4.3,1.5,7,1.5
	c0,0,0,0,0,0c6.2,0,14-2.7,22.4-7.8c9-5.4,13.7-9.6,18.8-14.1C860,444.3,864.4,440.4,871.7,435.7z M1003.3,489.8
	c9.9,15.9,25.1,15.5,35.6,12.5c-12-4-16.3-6.1-25.3-15.4C1013.7,486.9,1008,488.7,1003.3,489.8z M788.7,531.6
	c-3.4-1-5.2-1.8-8.1-3.8c-9.2-6.2-14.7-19.5-8.1-31c0.1-0.3,0.5-1,1.7-2.9c-5,3.1-48.6,28.7-48.6,28.7s0.2,3.2,4.5,4.8
	c8.9,2.8,19.6,0.3,25.6-0.9c-4.2,4.5-9.4,13.7-6.6,24c8.8-2.2,13-3.7,19.6-13.7c-0.2,9.3-0.8,24.7,7.4,32.3
	C777.5,564.9,782.4,549.9,788.7,531.6z M1023,484.3c4.5,4.5,11.3,10.6,26.9,13.3c8.3,1.3,22.1-0.5,27.7-2
	c-15.5-3.7-24.1-10.6-32.7-17.8C1042.2,478.4,1031.8,481.1,1023,484.3z M1057.1,474.9c6.3,5.1,14.2,11.5,27.4,14.9
	c15.7,3.8,36.7-5.5,37.9-6.7c-13.8-0.7-24.2-5.5-34.9-12.3C1074.5,477.5,1062.1,472.8,1057.1,474.9z M1097.9,465.6
	c7,3.8,12.6,6,19.1,7.7c17.2,5.2,27.9-7.3,32.8-14.5c0.2-0.3,0.2-0.9-0.3-0.9c-22.3-0.1-24.1-2.1-32.8-5.8
	C1115.4,455.1,1111,462.2,1097.9,465.6z"/>
<g id="Script">
	<path class="st0" d="M827.9,1028.9c174.3,0,204.3,140.1,383.1,140.1c108.3,0,110.4-46,110.4-46l-18.3-94
		c23.7-28.3,120.7-25,120.7-25l-84.1-109c-78.2,5-142.4,25.2-142.4,59.1l0,101c-105.4,0-175.8-139.5-369.3-139.5h0
		c-193.5,0-264,139.5-369.3,139.5l0-101c0-33.8-64.3-54-142.4-59.1l-84.1,109c0,0,97.1-3.4,120.7,25l-18.3,94c0,0,2.1,46,110.4,46
		C623.6,1169,653.7,1028.9,827.9,1028.9L827.9,1028.9z"/>
	<path class="st1" d="M1245.1,996.5c41.6,11.5,45.5,18.9,46.5,23.1c0.8,4.3-0.2,8.3-3.2,12.1c-10.6,13.5-42.6,22.6-81.7,23.3v-77.8
		C1214.4,985.2,1227.1,991.6,1245.1,996.5z M1206.7,953.7c0,19.1,19.9,27.9,40.9,33.7c39.9,11,50.3,19.2,53.4,30.6
		c18.7-14.4,51.6-20.5,103.3-22.5l-70.1-91.2c-26,2.6-54.7,6.6-74.9,12.6C1227.9,926.2,1206.7,939.4,1206.7,953.7z M1295.2,1038.4
		c-15.4,18.4-55.6,25.5-88.5,26.1v0h-9.5c-47.6,0-87-25.8-132.6-55.6c-58.3-38.1-124.2-81.2-227.2-83.7h-19
		c-103.1,2.5-168.9,45.6-227.2,83.7c-45.6,29.8-85,55.6-132.6,55.6h-9.5v0c-32.9-0.6-73.1-7.7-88.5-26.1l-16.5,84.8
		c1.4,5.6,12.9,36.3,100.7,36.3c87,0,136.5-33.6,188.9-69.1c49.6-33.7,100.9-68.4,184.7-70.9h19c83.8,2.5,135.1,37.2,184.7,70.9
		c52.4,35.5,101.9,69.1,188.9,69.1c87.8,0,99.4-30.8,100.7-36.3L1295.2,1038.4z M410.8,996.5c-41.6,11.5-45.5,18.9-46.5,23.1
		c-0.8,4.3,0.2,8.3,3.2,12.1c10.6,13.5,42.6,22.6,81.7,23.3v-77.8C441.4,985.2,428.8,991.6,410.8,996.5z M396.6,916.8
		c-20.2-6-48.9-10-74.9-12.6l-70.1,91.2c51.7,2,84.5,8.2,103.3,22.5c3-11.3,13.4-19.5,53.4-30.6c20.9-5.8,40.9-14.6,40.9-33.7
		C449.1,939.4,427.9,926.2,396.6,916.8z"/>
	<path class="st0" d="M1284.2,1117.3c0,0,2.4,10.7,2,11.3c0,0-1.3,0.5-1.8,0.2c-0.4-0.9-0.7-1.1-2.9-0.7c0,0-33.1,7.4-33.7,7
		c0,0-0.4-1.3,0-1.9c2.3-0.8,2.3-1.3,2.1-2.4l-9.1-40.9c-0.2-1.1-0.4-1.5-3.6-1.6c0,0-0.3-1.3,0.1-1.9l32.1-7.1
		c2.1-0.5,2.3-0.9,2.7-2.3c0,0,1.2-0.5,1.8-0.1c0,0,2.5,11,2.1,11.6c0,0-1.3,0.3-1.9,0c-0.4-0.7-0.7-1-2.8-0.5
		c0,0-19.3,4.3-19.4,3.8c0,0.1,2.1,9.8,2.1,11.3c0,0.1,0,0.2-0.1,0.2c0.1,0,11.7-2.6,11.7-2.6c2.2-0.5,2.3-0.7,2.7-2.1
		c0,0,1.4-0.5,1.9-0.3c0,0,2.7,11,2.3,11.6c0,0-1.4,0.5-1.9,0.4c-0.3-0.7-0.9-1.2-3.1-0.8c0,0-10.3,2.3-11.3,2.5
		c0.3,1.4,2.4,10.7,2.3,12.1c0,0.1-0.1,0.2-0.1,0.2c0.1,0,21-4.6,21-4.6c2.2-0.5,2.3-0.7,2.7-2.2c0,0,1.3-0.6,1.9-0.3L1284.2,1117.3
		z M1080.9,1089.6c0,0,1.2,0.6,1.4,1.3c0,0-6.6,10.1-7.3,10.2c0,0-1.1-0.6-1.3-1.2c0.4-0.9,0.4-1.5-1.5-2.7c0,0-27.3-17.9-27.4-18.6
		c0,0,0.7-1.2,1.3-1.4c1.8,0.9,2.3,0.7,2.9-0.3l22.9-34.9c0.7-1,0.8-1.5-1-3.6c0,0,0.6-1.2,1.3-1.3c0,0,13,8.5,13.1,9.2
		c0,0-0.5,1.2-1.2,1.4c-2.3-1.2-2.8-1-3.5,0c0,0-20.2,30.8-20.8,30.8c0,0,17.2,11.3,17.2,11.3
		C1078.8,1091,1079.2,1090.9,1080.9,1089.6 M748.8,1003.9c0,0-0.7,1.2-1.2,1.3c-0.6-0.3-1-0.5-1.4-0.4c-2.7,1.9-3.6,8.1-14.5,11.3
		c-13,4-25.1-3.2-29.4-17.4c-5.3-17.3,3.9-28.6,15.4-32.2c9.7-2.7,13.7,1.4,14.9,0.1c0.9-1,1.4-1.8,2-1.7l1.1,0.1l-0.3,1.4
		c0,0-2.7,12.6-3.2,13l-1.1-0.2c0,0-0.2-1.5-1.4-2.8c-1.8-1.9-5.9-2.5-9.2-1.5c-4.1,1.2-13.2,4.7-8.3,20.6
		c2.6,7.6,7.8,14.3,17.7,11.7c2.9-0.9,5.6-3,6.8-5.3c0,0,1.2-2.5-0.2-5.5c0,0,0.6-1,1.2-1L748.8,1003.9z M458.1,1093.3
		c-3.9-4.1-9.4-6.4-15.6-6.6c-6.3-0.1-11.8,1.9-15.9,5.8c-4.8,4.5-7.5,11.4-7.7,19.3c-0.4,15.4,8.6,25.9,22.4,26.3
		c6.3,0.1,11.8-1.8,15.9-5.8c4.8-4.5,7.5-11.4,7.7-19.4C465,1105,462.6,1098,458.1,1093.3z M454.5,1112.7
		c-0.1,6.1-1.7,10.8-4.6,13.6c-2.1,2.1-5,3.1-8.4,3c-8.1-0.2-12.4-6.3-12.2-17.1c0.1-6.2,1.8-10.8,4.7-13.6c2.1-2,4.9-3,8.3-2.9
		c3.4,0.1,6.2,1.2,8.2,3.3C453.2,1101.9,454.6,1106.6,454.5,1112.7z M1212,1089.1l-20.6-0.1c-0.5,0.5-0.6,1.8-0.6,1.8
		c2,0.7,2.3,1.2,2.2,2.5c0,0-0.1,41.8-0.1,41.8c0,1.3-0.2,1.6-1.9,1.9l-0.4,1.8c0.5,0.5,19.3,0.6,19.3,0.6c8.2,0,14.5-2.1,18.7-6.3
		c4.3-4.2,6.4-10.5,6.4-18.8C1235.1,1098.7,1226.5,1089.2,1212,1089.1z M1224.7,1114.4c-0.1,12.3-4,16.2-16.4,16.2c0,0-5.4,0-5.4,0
		v0c0.5-0.1,0.6-29.8,0.7-32.5c0.8,0,4.9,0.1,4.9,0.1c12.3,0,16.3,4,16.3,16.1V1114.4z M883.4,952.3c0,0,4.1,2.4,4.7,2.6
		c0.6,0.2,1.3-0.2,1.9-0.7l1.5,1.2c0,0-8.5,10.9-9.2,11c0,0-1.2-0.7-1.5-1.2c0,0,0.2-1.3,0.3-1.6c0.5-2.4-4.1-5.7-11-6.5
		c-2.6-0.4-4.6,0-6,1.1c-1.4,1-1.7,2.2-1.8,3.4c-0.4,3.8,4.5,5.6,10.2,7.6c8.3,3,18.6,6.6,17.2,18.5c-0.5,3.8-2.5,7.2-5.6,9.7
		c-3.2,2.5-9,5.3-18.7,3.9c0,0-9.5-1.7-16.5-6.4c0,0-0.2-0.2-2.1,1.1l-1.3-1l0.3-0.4c0,0,7.2-11.1,7.9-11.3l1.3,0.7
		c0,0-0.1,0.9-0.1,1.2c-0.4,3.6,8.1,6.5,12.1,7c4.7,0.6,8,0.1,9.9-1.4c0.9-0.8,1.8-2.2,2.1-4.1c0.6-4.1-4.8-6-10.8-8.2
		c-8-2.9-17.9-6.4-16.6-16.9c0.9-6.9,6.8-14.4,20.4-12.7C876.3,949.4,880.2,950.5,883.4,952.3 M965.7,977c-0.7,0.3-1.2,1.5-1.2,1.5
		c1.6,1.4,1.5,1.7,1.4,1.9l-2.7,3.1c0,0-29,29.4-29,29.4c0,0-0.8,0.8-1.7,0.9c-0.5,0.1-1.2,0.2-1.8,0.2l-0.7,1.6l12.9,6l0.7-1.6
		c-0.2-0.1-0.4-0.3-0.6-0.6c-0.2-0.3-0.2-0.6-0.1-1c0.2-0.3,0.7-1.1,0.7-1.1s5.7-6.1,5.9-6.5c0.4,0.3,15,7,15,7.1
		c-0.1,0.7-1.1,8.6-1.1,8.6s-0.2,0.9-0.3,1.2c-0.2,0.3-0.4,0.5-0.8,0.6c-0.4,0-0.7,0-0.9-0.1l-0.7,1.6l12.9,6l0.7-1.6
		c-0.4-0.5-0.8-1-1-1.5c-0.5-0.7-0.3-1.9-0.3-1.9c0,0,3.6-41.1,3.6-41.1l0.5-3.8c0.1-0.3,0.4-0.9,1.8-0.4c0.6-0.3,1.2-1.5,1.2-1.5
		C980,983.3,965.7,977,965.7,977z M965.5,1010.2c0,0-9.3-4.3-10.8-5c0.8-0.9,11.7-12.9,13.2-14.5
		C967.9,990.7,965.6,1009.6,965.5,1010.2z M1117.7,1065c-0.7,0.2-1.2,1.4-1.2,1.4c1.5,1.5,1.4,1.8,1.3,1.9l-2.8,3
		c0,0-30,28.3-30,28.4c0,0-0.8,0.8-1.7,0.9c-0.6,0.1-1.2,0.1-1.8,0.1l-0.8,1.5l12.7,6.4l0.8-1.5c-0.2-0.1-0.4-0.3-0.6-0.6
		c-0.2-0.3-0.2-0.6,0-1c0.2-0.3,0.8-1,0.8-1s5.9-5.9,6.2-6.3c0.4,0.3,14.7,7.5,14.8,7.6c-0.1,0.7-1.4,8.6-1.4,8.6s-0.2,0.9-0.4,1.2
		c-0.2,0.3-0.4,0.5-0.8,0.5c-0.4,0-0.7,0-0.9-0.1l-0.8,1.5l12.7,6.4l0.8-1.5c-0.4-0.6-0.7-1.1-1-1.6c-0.4-0.7-0.3-1.9-0.3-1.9
		c0,0,5-41,5-41l0.7-3.8c0.1-0.3,0.4-0.9,1.8-0.3c0.6-0.2,1.2-1.5,1.2-1.5C1131.8,1071.8,1117.7,1065,1117.7,1065z M1116.4,1098.1
		c0,0-9.1-4.6-10.6-5.4c0.8-0.9,12.2-12.5,13.7-14.1C1119.4,1078.7,1116.5,1097.5,1116.4,1098.1z M842.1,986.9c0,0,0.4,11-0.1,11.5
		c0,0-1.4,0.3-1.9-0.1c-0.2-0.9-0.5-1.2-2.7-1.2c0,0-33.9,1.1-34.4,0.6c0,0-0.1-1.4,0.3-1.9c2.4-0.4,2.5-0.8,2.5-2l-1.3-41.9
		c0-1.1-0.1-1.6-3.3-2.3c0,0,0-1.3,0.5-1.8l32.9-1c2.2-0.1,2.5-0.5,3.1-1.8c0,0,1.3-0.2,1.8,0.3c0,0,0.4,11.3-0.1,11.8
		c0,0-1.3,0.1-1.8-0.3c-0.2-0.8-0.5-1.1-2.7-1c0,0-19.7,0.6-19.8,0.1c0,0.1,0.3,10,0,11.5c0,0.1-0.1,0.2-0.1,0.2
		c0.1,0,12-0.4,12-0.4c2.2-0.1,2.4-0.2,3-1.6c0,0,1.5-0.3,1.9,0c0,0,0.6,11.3,0.1,11.8c0,0-1.5,0.2-1.9,0c-0.2-0.8-0.6-1.4-2.9-1.3
		c0,0-10.6,0.3-11.5,0.3c0.1,1.4,0.4,10.9,0.1,12.4c0,0.1-0.1,0.1-0.1,0.1c0.1,0,21.5-0.7,21.5-0.7c2.2-0.1,2.4-0.3,3-1.6
		c0,0,1.4-0.4,1.9,0.1L842.1,986.9z M495.9,1082.5c0,0,4.5,1,5.2,1c0.6,0,1.2-0.6,1.5-1.3l1.8,0.6c0,0-4.5,12.7-5.1,13.1
		c0,0-1.4-0.3-1.8-0.7c0,0-0.2-1.3-0.2-1.6c-0.3-2.3-5.6-4-12.2-2.7c-2.5,0.5-4.2,1.5-5.2,2.8c-1,1.4-0.9,2.6-0.6,3.7
		c0.8,3.7,5.8,3.8,11.8,3.9c8.6,0.2,19.3,0.4,21.6,11.8c0.7,3.6-0.1,7.5-2.2,10.7c-2.2,3.3-6.7,7.7-16.1,9.3c0,0-9.3,1.3-17.2-0.8
		c0,0-0.3-0.1-1.6,1.6l-1.5-0.5l0.1-0.5c0,0,3.2-12.5,3.8-12.9l1.4,0.3c0,0,0.2,0.9,0.3,1.2c0.7,3.5,9.5,3.5,13.4,2.7
		c4.5-0.9,7.4-2.4,8.8-4.4c0.6-1,1-2.6,0.7-4.5c-0.7-4-6.2-4.1-12.6-4.3c-8.3-0.2-18.5-0.4-20.6-10.6c-1.3-6.7,1.8-15.4,15-18
		C488.5,1081.9,492.4,1081.8,495.9,1082.5 M603.9,1072.6c0,0,6,9.2,5.9,9.9c0,0-1,1-1.6,0.9c-0.7-0.7-1.1-0.8-2.9,0.4
		c0,0-28.4,18.5-29.1,18.4c0,0-0.8-1.1-0.7-1.8c1.9-1.6,1.7-2,1.1-3l-22.9-35.1c-0.6-1-1-1.3-4-0.3c0,0-0.7-1.1-0.6-1.8l27.5-17.9
		c1.8-1.2,1.9-1.7,1.7-3.1c0,0,1-0.9,1.7-0.7c0,0,6.2,9.4,6,10.1c0,0-1.1,0.8-1.7,0.7c-0.6-0.6-1-0.7-2.9,0.5
		c0,0-16.5,10.8-16.8,10.4c0,0.1,5.4,8.4,5.9,9.8c0,0.1,0,0.2,0,0.2c0.1,0,10.1-6.5,10.1-6.5c1.9-1.2,1.9-1.4,1.7-2.9
		c0,0,1.1-1,1.6-1c0,0,6.4,9.3,6.2,10c0,0-1.2,1-1.6,1c-0.6-0.6-1.3-0.8-3.1,0.4c0,0-8.9,5.7-9.7,6.3c0.8,1.2,6,9.2,6.5,10.5
		c0,0.1,0,0.2,0,0.2c0.1,0,18-11.7,18-11.7c1.9-1.2,1.9-1.5,1.8-3c0,0,1-1,1.7-0.9L603.9,1072.6z M645,1000.5
		c-0.2,0.7,0.4,1.8,0.4,1.8c2.1-0.4,2.3-0.1,2.3,0l0.9,4c0,0,5.8,40.9,5.8,40.9c0,0,0.2,1.2-0.2,1.9c-0.3,0.5-0.6,1-1,1.6l0.8,1.5
		l12.6-6.7l-0.8-1.5c-0.2,0.1-0.5,0.1-0.8,0.1c-0.4,0-0.7-0.2-0.8-0.5c-0.2-0.3-0.4-1.2-0.4-1.2s-1.4-8.2-1.6-8.7
		c0.4-0.1,14.7-7.6,14.7-7.7c0.5,0.6,6.2,6.1,6.2,6.1s0.6,0.7,0.8,1c0.2,0.3,0.2,0.7,0,1c-0.2,0.3-0.4,0.5-0.6,0.6l0.8,1.5l12.6-6.7
		l-0.8-1.5c-0.7,0-1.3,0-1.8-0.1c-0.8-0.1-1.7-0.9-1.7-0.9c0,0-30.5-27.8-30.5-27.8l-2.7-2.7c-0.2-0.3-0.5-0.9,0.8-1.7
		c0.2-0.7-0.5-1.9-0.5-1.9C658.7,993,645,1000.5,645,1000.5z M671.3,1020.7c0,0-9,4.7-10.5,5.6c-0.2-1.2-3.2-17.2-3.6-19.3
		C657.2,1007,670.9,1020.3,671.3,1020.7z M932.9,1009.9c0,0-1.2,0.6-1.7,0.4c-0.3-0.6-0.5-1-1-1.1c-3.3,0.1-7.5,4.7-18.3,1.4
		c-13-3.8-19.2-16.5-15-30.8c5.1-17.4,19.1-21.7,30.6-18.3c9.6,3.1,10.7,8.7,12.4,8.3c1.3-0.3,2.2-0.7,2.6-0.3l0.9,0.7l-1,1
		c0,0-9.2,9.1-9.8,9.1l-0.8-0.7c0,0,0.7-1.3,0.4-3.1c-0.5-2.6-3.6-5.3-6.9-6.3c-4.1-1.2-13.6-3.4-18.3,12.7
		c-2,7.8-1.3,16.2,8.3,19.6c2.9,0.8,6.3,0.6,8.6-0.7c0,0,2.4-1.4,2.9-4.7c0,0,1.1-0.5,1.5-0.2L932.9,1009.9z M402.1,1080.5
		l-22.4-4.3c-0.6,0.4-0.5,1.7-0.5,1.7c2.1,1.2,2.2,1.7,1.9,2.9l-8,41.1c-0.2,1.2-0.6,1.7-2.4,1.6c-0.6,0.4-0.7,2-0.7,2
		c0.1,0.1,15,2.9,15,2.9l0.3-1.7c-1.7-0.9-2-1.4-2-2.2c0-0.2,0-0.4,0.1-0.6c0,0,3.2-16.2,3.2-16.4c0,0.5,9.8,2.4,9.8,2.4
		c12.6,2.5,18.6-4.3,20-11.4C417.8,1091.4,414.8,1082.9,402.1,1080.5z M396.4,1100.8c0,0-8.1-1.6-8.2-1.6c0.5-1.5,2-10.5,2.3-11.9
		c0.9,0.2,8.2,1.6,8.2,1.6c6.1,1.3,8.3,3.3,7.5,7.7C405.4,1100.9,402.7,1102,396.4,1100.8z M649.6,1051.8c-1.8,0.3-2.5,0-5.4-1.7
		l-14.3-8.1c5.7-6.2,4.9-13.1,1.6-18.1c-4-6.1-12-10-22.9-3l-19.1,12.4c-0.1,0.7,0.9,1.6,0.9,1.6c2.3-0.6,2.7-0.3,3.4,0.7l22.8,35.1
		c0.7,1,0.8,1.7-0.7,2.8c-0.1,0.7,0.9,1.9,0.9,1.9c0.2,0,12.8-8.3,12.8-8.3l-1.1-1.8c-1.8,0.5-2.4,0.4-3-0.2
		c-0.1-0.2-0.3-0.3-0.4-0.5c0,0-8.6-13.2-8.7-13.4c0,0,2.7-1.7,5-3.2c2.4,1.6,16.6,9.7,16.8,9.8c0.4,0.3-0.6,1.3-0.9,1.5
		c-0.1,0.3,1.1,1.9,1.1,1.9c0.3,0.1,12.3-7.9,12.3-7.9C650.5,1053,649.6,1051.8,649.6,1051.8z M605.1,1033.9c0.8-0.5,7-4.6,7-4.6
		c5.3-3.3,8.2-3.4,10.7,0.3s1.3,6.4-4.1,9.8c0,0-6.9,4.5-7,4.6C611,1042.7,605.9,1035.1,605.1,1033.9z M796.1,997.5
		c-1.8-0.4-2.3-1-4.4-3.7l-10.1-13c7.6-3.5,9.5-10.2,8.5-16c-1.3-7.1-7.2-13.9-19.9-11.6l-22.4,4.1c-0.4,0.6,0.2,1.8,0.2,1.8
		c2.4,0.4,2.6,0.8,2.9,2l7.5,41.2c0.2,1.2,0.1,1.8-1.7,2.3c-0.4,0.6,0,2.1,0,2.1c0.2,0.1,15-2.7,15-2.7l-0.4-2.1
		c-1.9-0.3-2.4-0.6-2.7-1.3c-0.1-0.2-0.1-0.4-0.2-0.6c0,0-2.8-15.5-2.9-15.7c0,0,3.1-0.5,5.9-1c1.6,2.4,11.6,15.4,11.7,15.5
		c0.3,0.4-1,0.9-1.4,1c-0.2,0.2,0.3,2.1,0.3,2.1c0.2,0.2,14.4-2.5,14.4-2.5C796.5,998.9,796.1,997.5,796.1,997.5z M761.9,963.8
		c0.9-0.2,8.2-1.5,8.2-1.5c6.1-1,8.9,0,9.7,4.4c0.8,4.4-1.3,6.4-7.6,7.5c0,0-8.1,1.5-8.2,1.5C764,974.2,762.2,965.2,761.9,963.8z
		 M550.1,1111.2c0.5,1.2,0.9,1.4,3,1.2l0.8,1.6l-0.5,0.2c0,0-11.6,5.3-12.7,5.7c0,0-0.8-1.4-0.7-1.8c0.3-0.2,0.9-0.9,0.9-1.4
		c0-0.3-0.1-0.7-0.4-1.2c0,0-14.8-32-15.4-33.8l0,0c0,0-10.2,4.8-10.2,4.8c-1.6,0.8-2,1.2-2,2.6c0,0.2,0,0.5,0.1,0.8
		c0,0-1.1,0.9-1.8,0.6c0,0-5.1-10.9-4.9-11.6c0,0,1-0.7,1.6-0.6c0.6,0.8,1,1,3,0l29-13.2c1.9-0.9,2.3-1,2.3-2.6c0,0,0.8-0.6,1.5-0.8
		c0,0,5.5,11.2,5.3,11.8c0,0-1.1,0.8-1.7,0.6c-0.8-1.2-1.3-2-3.2-1.1c0,0-9.1,4.3-9.5,4.3C534.9,1077.6,550.1,1111.2,550.1,1111.2
		 M1150.7,1132.9c-12.5-3.5-17.1-11.5-13.9-23.6l7.3-26.6c0.3-1.2-0.3-2.2-1.9-2.9c0-0.7,0.4-1.9,0.4-1.9s10.2,2.7,14.7,4.1
		c0,0-0.3,1.4-0.8,1.8c-1.6-0.2-2,0.4-2.3,1.6l-7.3,26.8c-0.8,3-0.6,5.7,0.6,7.8c1.1,2,3,3.4,5.7,4.2l0,0c2.7,0.7,5.1,0.4,7.1-0.6
		c2.1-1.2,3.7-3.4,4.6-6.4l7.7-26.7c0.3-1.2,0.3-1.9-1.1-2.6c-0.3-0.6,0.2-2,0.2-2c4.5,1.2,14.7,4.1,14.7,4.1s-0.2,1.3-0.6,1.8
		c-1.7-0.2-2.8,0.4-3.1,1.5l-7.7,26.5C1171.3,1132.1,1163.2,1136.4,1150.7,1132.9L1150.7,1132.9z M998.2,1051.1
		c-0.2-0.2-0.5-0.3-0.7-0.5c0,0,6.1-32.6,7.7-38.1c0.1-0.3,0.1-0.6,0.2-0.9c-2.1,3.4-17.9,28.3-17.9,28.3c-0.2,0.2-0.3,0.5-0.3,0.8
		c0,0.4,0.3,1,1.2,2l-0.9,1.5c0,0-10.9-6.9-11.6-7.4c0,0,0.7-1.3,1.1-1.4c0.9,0.5,1.9,0,2.4-0.7l23-36.3c0.4-0.7,0.5-1.2-0.6-2.6
		c0,0,0.4-1.3,1.2-1.5c0,0,14.7,9.2,14.7,9.4c0,0-0.7,1.1-1.2,1.3c-1-0.2-1.5,0.5-1.7,0.7c-0.5,0.8-5.7,28.3-5.8,28.5l0,0
		c0.2-0.1,22.8-16.6,23.4-17.3c0.2-0.2,0.5-1-0.1-1.8c0-0.6,0.7-1.7,0.7-1.7c0.2-0.1,14.7,9.3,14.7,9.3c0.2,0.7-0.8,1.7-0.8,1.7
		c-1.7-0.4-2.2-0.1-2.6,0.6l-23,36.3c-0.5,0.8-0.4,1.9,0.4,2.5c0.1,0.4-0.8,1.6-0.8,1.6c-0.8-0.4-11.7-7.4-11.7-7.4l1-1.5
		c1.3,0.4,2,0.4,2.3,0.2c0.3-0.1,0.4-0.3,0.6-0.6c0,0,15.8-24.9,18-28.3c-0.2,0.2-0.5,0.4-0.8,0.6c-4.2,3.8-31.2,23.2-31.2,23.2
		C998.7,1051.5,998.5,1051.3,998.2,1051.1L998.2,1051.1z"/>
</g>
<path id="Wordmark" class="st1" d="M1536.1,636h2625.7v14.9H1536.1V636z M1807.4,798.6c0,0-94,197.3-102.5,215.1
	c-1.7-3.4-102.9-212.4-102.9-212.4c-4.8-9.6-7.2-12.3-11.1-12.3c-2.5,0-5.8,1.9-7.4,10.7l-37.6,247.7c-2,14-5.4,27.4-14.8,29.2
	c0,0-11.2,1.2-11.2,1.2c-3,0.2-7,0-7,3.6c0,5.1,5.7,5.1,7.8,5.1l23.4-0.7l14.2-0.5l12.2,0.4l27.7,0.8c4.9,0,10.1-0.4,10.1-5.1
	c0-2.3-1.9-3.2-6.7-3.6l-15.7-1.9c-7.2-1.7-10.7-5.4-10.7-11.2l1.1-17.7c0,0,17.3-132.3,19.5-149.3c3.2,5.1,18.5,37.7,18.5,37.7
	l21,45c4.5,10.5,34,67.7,43.7,86.3l1.1,2.1c5.8,10.9,9.3,17.4,13,17.4c4.1,0,6.1-3.8,14.9-21.8l82.8-172.4
	c0,1.5,22.6,166.8,22.6,166.8c0.5,3.4,0.7,6.1,0.7,8.3c0,4.6-0.9,6.7-1.9,7.1c-2.6,1.1-4.8,2.5-4.8,5.1c0,3.4,4,4.4,11.9,5.1
	c15,1.1,67.3,2.3,77.2,2.3c7,0,10.8-1.8,10.8-5.1c0-3.6-4.8-3.6-7.1-3.6c-5.2,0-12.5-0.4-23.3-3.8c-11.1-3.3-14.7-14.8-17.9-37.6
	l-34.6-234.8c-1.2-8.5-3.7-12.6-7.8-12.6C1812.6,789,1810.4,792.6,1807.4,798.6 M2251.1,798l-20.1,0.5l-19.3-0.4l-32.8-0.7
	c-4.5,0-9.3,0.3-9.3,4.4c0,4.3,3.7,3.9,7.4,4.3l12.3,1.1c12.3,1.1,14.9,8.8,15.6,20.8c0.8,12.1,0.8,22.6,0.8,80.5v66.9
	c0,34.8,0,64.9-1.9,80.8c-1.7,12.3-3.8,18.8-10.3,20.1c0,0-13.5,1.5-13.5,1.5c-3.7,0.3-7,0.4-7,4c0,4.7,6.4,4.7,8.5,4.7l26.2-0.8
	c0.1,0,21.7-0.4,21.7-0.4l59.3,1.5l51.2,0.8c20,0,22.4-1.9,24.9-11c3.1-11.2,5.7-39.5,5.7-43.9c0-3.6,0-7.4-4-7.4
	c-4.4,0-4.9,4.2-5.1,6.5c-0.7,7.1-5.2,17.5-9.6,22.2c-8.9,9.6-22.5,10.3-43.7,10.3c-30.4,0-39.4-2.9-45.3-8.1
	c-7.6-6.6-7.6-33-7.6-81v-66.9c0-57.9,0-68.3,0.8-80.5c0.8-13.8,4.1-19.1,13.3-20.8l14.6-1.1c4,0,7.8-0.5,7.8-4.3
	c0-3.8-4.3-4.4-8.9-4.4L2251.1,798z M2493.3,1064c10.2,4.1,18.7,4.5,27.4,4.5c7.5,0,45-2.3,45-47.7c0-14.8-3.6-51.9-36.5-74.8h0
	c-7.9-5.7-16.7-8.2-31-8.9l-16.3-0.4c-0.8,0-1.3,0.1-1.3,1.7v90C2480.6,1053.5,2481.7,1059.3,2493.3,1064 M2495.6,814.8
	c0,0-12.3,0.7-12.3,0.7c-2,0.6-2.7,1.5-2.7,5.5v93.8c0,2.6,0.8,3,1.9,3.3l17.6,1.2c11.3,0,20.1-1.2,26.7-7
	c9.9-8.1,15.2-21.8,15.2-39.6C2542.2,850.3,2529.5,814.8,2495.6,814.8 M2502.1,797.3c75.9,0,81.8,44.3,81.8,57.9
	c0,29.3-15.2,47.7-37.9,66.1c33.3,11.8,68.3,39.4,68.3,82.4c0,41.7-31.6,83.7-102.3,83.7l-11.8-0.5c0,0-14.8-0.7-14.8-0.7l-28.4-1.1
	c0,0-21.6,0.4-21.6,0.4l-26.2,0.8c-2.1,0-8.5,0-8.5-4.7c0-3.6,3.3-3.8,7-4c0,0,13.5-1.5,13.5-1.5c7.1-1.4,8.9-9.9,10.3-20.1
	c1.9-15.9,1.9-46,1.9-80.8v-66.9c0-57.9,0-68.3-0.8-80.5c-0.7-12-2.1-19.5-15.6-20.8l-14.6-1.1c-4.4-0.4-7.4,0-7.4-4.3
	c0-4,4.8-4.4,9.3-4.4l37.1,0.8l14.6,0.4l27.4-0.7L2502.1,797.3z M2707.5,930.1c0,82.9,47.6,140.7,115.7,140.7
	c26.2,0,87.2-11.9,87.2-121.8c0-80.6-45.4-136.9-110.4-136.9C2765.4,812.1,2707.5,827.4,2707.5,930.1 M2653.2,941.8
	c0-72.2,49.4-149.8,157.8-149.8c95.3,0,154.4,54.8,154.4,143c0,92.2-65,156.7-158.2,156.7C2701.4,1091.7,2653.2,1014,2653.2,941.8
	 M3247.4,798.1l-54.7-0.8c-4.3,0-8.9,0.3-8.9,4.4c0,4.4,12,4.6,20.8,5.5c10.9,1.1,14.9,8.8,15.6,20.8c0.8,12.1,0.8,22.6,0.8,80.4
	v47.5c0,40.7-1.6,73.4-21.8,93.6c-18.3,18.3-42.3,20.2-51.7,20.2c-13.1,0-30.3-1.7-46.9-15.3c-15.2-12.4-29.3-32.3-29.3-92.7v-53.2
	c0-57.9,0-68.3,0.7-80.4c0.8-13.9,4.2-19.1,13.3-20.8l10.8-1.1c3.1-0.4,7,0,7-4.4c0-4-4.8-4.4-9.3-4.4l-27.8,0.7l-19,0.5L3027,798
	l-35.1-0.7c-4.5,0-9.3,0.3-9.3,4.4c0,4.4,4,4.1,7.4,4.4c0,0,3.4,0.2,14.6,1.1s14.9,8.8,15.6,20.8c0.8,12.1,0.8,22.6,0.8,80.4v55.5
	c0,48.2,10.8,80.4,34.1,101.3c29.2,26.5,68.3,26.5,84.9,26.5c22.1,0,51.2-3.2,79.6-27.6c32-27.4,36.4-71.5,36.4-115.1v-40.6
	c0-57.9,0-68.3,0.8-80.4c0.8-13.9,4.1-19.1,13.3-20.8c0,0,10.9-1.1,10.9-1.1c4.4-0.4,7.8-0.5,7.8-4.4c0-4-4.6-4.4-8.9-4.4
	L3247.4,798.1z M3406,944.4c7,2.3,17.7,3.7,28.6,3.7c15.1,0,19.9-1.6,26.4-6.3c8.2-6,22-21.3,22-56.2c0-54.2-35.9-68.6-57.2-68.6
	c-10.3,0-16.4,0.5-19.9,1.5c-2.1,0.6-2.7,1.6-2.7,4.4v115.5C3403.3,942.5,3404,943.5,3406,944.4 M3433.1,797.3
	c22.9,0,49.2,1.9,70.4,16.5c9.1,6.1,26.3,25.1,26.3,52.8c0,31.2-14.9,56.7-49.8,85.2c1,1.3,12.8,16.1,12.8,16.1
	c27.8,35,49.7,62.7,69.1,83.1c20.6,21.3,35.4,24.3,41.5,25.6l0.9,0.2c4.3,0.8,5.4,3.2,5.4,4.9c0,4.7-5.5,4.7-8.2,4.7h-25.9
	c-20.8,0-30.8-1.8-41.1-7.4c-16-8.5-30.2-25.6-52.4-56.1l-19.4-27.3c0,0-18.2-25.1-18.2-25.1c-1.6-1.9-3.5-2.3-6.1-2.3l-33-0.8
	c-1.6,0-2.1,0.5-2.1,2.1v5.3c0,35,0,65.3,1.9,81.2c1.2,12,3.8,18.7,14,20.1l18.5,1.5c5,0,5.5,2.8,5.5,4c0,4.7-6.4,4.7-8.5,4.7
	l-43.6-0.9l-12.3-0.3l-15.4,0.4l-30.9,0.8c-2.1,0-8.6,0-8.6-4.7c0-3.6,3.7-3.7,7.1-4l13.5-1.5c7.1-1.4,8.9-9.9,10.3-20.1
	c1.9-15.9,1.9-46,1.9-80.8v-66.8c0-57.9,0-68.3-0.7-80.5c-0.7-12-3.2-19.3-15.6-20.8l-14.6-1.1c-2.4,0-7.4,0-7.4-4.4
	c0-4,4.8-4.3,9.3-4.3l36.8,0.8l15.2,0.4l27.9-0.6L3433.1,797.3z M3670.6,804.7l-3.4,224.8c-0.4,32.7-1.9,43.4-11.1,46.2
	c-5.6,1.6-10.1,1.9-13.9,1.9c-1.9,0-7,0-7,4c0,4.7,5.4,4.7,9.3,4.7l31.7-0.9l17,0.1l34.1,0.8c3.1,0,9.7,0,9.7-4.7c0-4-5.2-4-7.4-4
	c-5.6,0-10.5-0.3-17-2.6c-8.2-2.9-12-15.2-12.7-41.3c0,0-4.1-154.4-4.1-157.8c2.1,1.8,7.7,7.9,7.7,7.9c16,17.6,49.2,54,82.2,86.8
	l50.4,50.5l61.7,61.2c4.4,4.3,9,8.6,13.6,8.6c5.2,0,5.9-6.4,5.9-12.7l4.2-239.7c0.4-21.2,1.1-29.6,10.9-31.4c0,0,11.1-1.1,11.1-1.1
	c5.9-0.4,7.8-1.5,7.8-4.4c0-4.4-5.8-4.4-9.7-4.4l-27.9,0.9l-6.9,0.3l-13.4-0.4l-30.1-0.8c-4.6,0-10.8,0-10.8,4.4
	c0,3.8,3.7,4.4,7.1,4.4c5.3,0,11.8,0,17.3,2.2c8,3.4,11.9,9.2,12.3,33.3c0,0,3.6,160.7,3.8,170.7l-1-1.1c0-0.4-26.6-28.1-26.6-28.1
	l-56.3-58.3c-57.7-57.4-117.1-121.3-117.7-121.9l-3.6-3.9c-4.5-4.9-7.4-8.2-11.2-8.2C3671.2,790.9,3670.6,798.8,3670.6,804.7
	 M4136.3,798.1c-5.2,0.3-68.5,0.4-94.9,0.4l-19.4-0.6l-4.5-0.2c0,0-30.8-0.4-30.8-0.4c-4.5,0-9.3,0.3-9.3,4.3c0,4.4,4.6,4.4,7.4,4.4
	l14.6,1.1c13.3,1.6,14.9,8.8,15.6,20.8c0.8,12.1,0.8,22.6,0.8,80.5v66.8c0,34.8,0,64.9-1.9,80.8c-1.4,10.1-3.1,18.6-10.3,20.1
	l-13.5,1.5c-4.1,0.3-7,0.4-7,4c0,4.7,6.4,4.7,8.5,4.7l26.2-0.8c0,0,21.7-0.4,21.7-0.4l39.5,1.1l11,0.3l54.7,0.9
	c14.3,0,18.6,0,21.4-10.6c1.9-7.7,5-33.5,5-42.4c0-3.8,0-7.8-4-7.8c-3.6,0-4.4,2.7-5.1,6.5c-2.7,15.6-7.2,23-16.6,27.4
	c-9.7,4.5-25.7,4.5-35.3,4.5c-39.4,0-43.9-6.3-44.6-31l-0.1-43.2l0.1-15.7v-30c0-2.9,0.7-2.9,1.3-2.9c8.5,0,46.5,0.4,53.8,1.1
	c12,1.3,18.4,5.6,20.4,14.1l1.2,10.1l0.3,3.4c0,2.7,1.5,4.3,4.4,4.3c4.4,0,4.4-5.1,4.4-8.2l0.7-12.3l0.8-13.1l2.6-23.6l0.5-4.1
	c0-2.5-1.3-4-3.6-4c-2.2,0-3.8,1.9-6.3,4.7c-3.7,4.1-9.2,5.2-18.1,5.9c-5.6,0.5-27.1,0.8-60.7,0.8c-1.2,0-1.7-0.3-1.7-3.3v-96.1
	c0-2.9,0.9-2.9,1.7-2.9c7.3,0,47.3,0.8,53.8,1.5c19.1,2.3,22.3,6.9,24.7,13.1c2.2,5.1,2.2,12.5,2.2,13.3c0,1.9,0,6.3,4.4,6.3
	c3.7,0,4.5-3.7,4.7-4.9c0,0,1.4-17.4,1.4-17.4l0.6-7.8c0,0,2.5-21,2.5-21l0.5-3.8c0.3-3.4-1.1-4.4-3.2-4.4
	C4155.4,794.3,4143.3,797.9,4136.3,798.1z M2093.8,798.1c-5.2,0.3-68.5,0.4-94.9,0.4l-19.4-0.6l-4.5-0.2c0,0-30.8-0.4-30.8-0.4
	c-4.5,0-9.3,0.3-9.3,4.3c0,4.4,4.6,4.4,7.4,4.4l14.6,1.1c13.3,1.6,14.9,8.8,15.6,20.8c0.8,12.1,0.8,22.6,0.8,80.5v66.8
	c0,34.8,0,64.9-1.9,80.8c-1.4,10.1-3.1,18.6-10.3,20.1l-13.5,1.5c-4.1,0.3-7,0.4-7,4c0,4.7,6.4,4.7,8.5,4.7l26.2-0.8
	c0,0,21.7-0.4,21.7-0.4l39.5,1.1l11,0.3l54.7,0.9c14.3,0,18.6,0,21.4-10.6c1.9-7.7,5-33.5,5-42.4c0-3.8,0-7.8-4-7.8
	c-3.6,0-4.4,2.7-5.1,6.5c-2.7,15.6-7.2,23-16.6,27.4c-9.7,4.5-25.7,4.5-35.3,4.5c-39.4,0-43.9-6.3-44.6-31l-0.1-43.2l0.1-15.7v-30
	c0-2.9,0.7-2.9,1.3-2.9c8.5,0,46.5,0.4,53.8,1.1c12,1.3,18.4,5.6,20.4,14.1l1.2,10.1l0.3,3.4c0,2.7,1.5,4.3,4.4,4.3
	c4.4,0,4.4-5.1,4.4-8.2l0.7-12.3l0.8-13.1l2.6-23.6l0.5-4.1c0-2.5-1.3-4-3.6-4c-2.2,0-3.8,1.9-6.3,4.7c-3.7,4.1-9.2,5.2-18.1,5.9
	c-5.6,0.5-27.1,0.8-60.7,0.8c-1.2,0-1.7-0.3-1.7-3.3v-96.1c0-2.9,0.9-2.9,1.7-2.9c7.3,0,47.3,0.8,53.8,1.5
	c19.1,2.3,22.3,6.9,24.7,13.1c2.2,5.1,2.2,12.5,2.2,13.3c0,1.9,0,6.3,4.4,6.3c3.7,0,4.5-3.7,4.7-4.9c0,0,1.4-17.4,1.4-17.4l0.6-7.8
	c0,0,2.5-21,2.5-21l0.5-3.8c0.3-3.4-1.1-4.4-3.2-4.4C2112.9,794.3,2100.8,797.9,2093.8,798.1z M1864.3,300.3l-7.2,0l-24.9-0.7
	c-1.4,0-5.9,0-5.9,3.9c0,2,1.7,3.4,3.9,3.4l8.1,0.6c6.7,1.5,8.7,4.2,9.2,12.5l0.5,53.5v5.2l-104.9-0.5l0.4-4.8l0.5-53.5
	c0.5-8.4,2.4-11.5,7.7-12.5c0,0,5.9-0.7,5.9-0.7c2.2,0,3.9-1.4,3.9-3.4c0-2.6-2-3.9-5.9-3.9l-20.2,0.6l-7.4,0l-24.8-0.7
	c-3.9,0-5.9,1.3-5.9,3.9c0,1.9,1.7,3.4,3.9,3.4l8,0.6c6.8,1.5,8.8,4.2,9.2,12.5c0,0,0.5,53.6,0.5,53.6v43.8c0,23.3,0,43.3-1.2,53.6
	c-1,7.4-2.2,11.3-5.7,12c-0.1,0-7.1,1-7.1,1c-2.7,0-3.9,1.7-3.9,3.4c0,3.9,4.4,3.9,5.9,3.9l20.3-0.6l7-0.1l27.7,0.6
	c5.2,0,5.8-2.7,5.8-3.9c0-1.7-1.2-3.4-3.8-3.4l-11-1c-5.8-0.8-7.3-4.7-8-12c-1.3-10.3-1.3-30.4-1.3-53.7v-26.1l105,0.4l-0.5,25.7
	c0,23.3,0,43.3-1.3,53.6c-0.9,7.2-2.1,11.3-5.7,12c-0.1,0-7,1-7,1c-2.7,0-3.9,1.8-3.9,3.4c0,3.9,4.4,3.9,5.9,3.9l20.3-0.6l6.9,0
	l27.7,0.6c5.4,0,5.9-2.7,5.9-3.9c0-1.6-1.2-3.4-3.9-3.4l-10.9-1c-5.9-0.8-7.3-4.7-8.1-12c-1.2-10.3-1.2-30.4-1.2-53.7v-43.8
	l0.5-53.5c0.5-8.6,2.3-11.5,7.6-12.5l5.9-0.7c2.3,0,3.9-1.4,3.9-3.4c0-3.9-4.4-3.9-5.9-3.9L1864.3,300.3z M2023.5,299
	c-5,1-10.3,1.2-10.3,1.2c0,0-56.8,0.2-56.8,0.2l-3.3-0.1l-24.7-0.6c-1.5,0-5.9,0-5.9,3.9c0,2,1.6,3.3,3.9,3.4l8,0.6
	c6.4,0.5,8.8,4.2,9.2,12.5l0.5,53.5v43.8c0,23.3,0,43.3-1.2,53.6c-1,7.4-2.2,11.3-5.7,12.1c-1,0.1-7.1,0.9-7.1,0.9
	c-3,0.2-3.8,1.7-3.8,3.4c0,3.9,4.3,3.9,5.8,3.9l20.2-0.6l13.6,0.2l51.9,1.1c9.8,0,13.1,0,15.2-7.8c1.3-5.2,3.3-22.3,3.3-24.6
	c0-1.8,0-5.6-3.4-5.6c-3.1,0-3.7,3.4-4,5.3c-1.6,9.6-4.4,14.1-10.1,16.5c-6.1,2.6-16.8,2.6-23.1,2.6c-24,0-26.3-3-26.9-18.6l0-31.4
	l0-10.9v-21.9c0,0.1,35.2,1.4,35.2,1.4c8.4,0.8,10.8,4.4,11.3,7.3s0.9,7.7,0.9,7.7c0.3,2.7,1.5,4.1,3.6,4.1c3.7,0,3.7-4.4,3.7-6.6
	l1-15.7l2-14.1c0-3.6-2.5-3.9-3.1-3.9c-1.3,0.1-3.3,2.5-5,3.7c-4,2.3-3.9,2.5-10.6,3.1l-39.3,0.5l0.4-69.2c3-0.6,29.4-0.4,33.4,0.1
	c13.6,1.5,14.9,4.5,16.2,7.3c0-0.1,1.3,8.2,1.3,8.2c0,4.6,2.7,5.1,3.9,5.1c1.3,0,2.9-0.8,3.6-4.3c0-0.1,1-12.6,1-12.6l0.3-4
	c0,0,1.5-8.5,1.5-8.5l0.5-3.3c0-3.9-2.1-4.1-2.9-4.1S2025.7,298.5,2023.5,299z M2360,310.6l-0.2,142.4c0,22.2-1.8,29-6.1,29.7
	c-4.3,0.7-9.7,1.4-9.7,1.4c-3,0.2-3.9,1.7-3.9,3.4c0,3.9,4.1,3.9,5.9,3.9l19.8-0.6l7.7,0l22.7,0.6c1.8,0,6.3,0,6.3-3.9
	c0-1.6-0.7-3.1-3.9-3.4c0,0-7.3-0.7-11.9-1.4c-4.7-0.7-7.7-6.1-8.3-27c0,0-2.8-104.6-3.1-113.9c6.2,6.8,61.4,67.5,61.4,67.5
	c27,29.1,62.3,65.1,64.9,67.5c14.2,14.1,16.7,16.4,19.4,16.4c3.8,0,4.1-3,4.1-19.5c0-0.1,0.4-145.5,0.4-145.5
	c0-15.5,1.3-19,7.7-20.3c0,0,5.6-0.7,5.6-0.7c3.3-0.4,4.6-1.9,4.6-3.7c0-3.6-4.3-3.6-6.4-3.6l-16.7,0.5l-9.8,0l-20.5-0.5
	c-2.4,0-6.9,0-6.9,3.6c0,2.3,1,3.5,3.9,3.7l11.8,1.2c6,1,8,4.9,8.2,21.8c0,0,2.1,98,2.7,121.2c-4.8-5.2-18.5-20.1-18.5-20.1
	l-37.7-41.1l-81.2-87.5c-3.5-3.9-5.8-6.2-7.9-6.2C2360.3,296.3,2360,301.9,2360,310.6 M2604.1,300.3h-7.8l-21.3-0.6
	c-1.4,0-5.8,0-5.8,3.9c0,1.9,1.2,3.2,3.8,3.4l7.3,0.9c3.8,0.5,6.5,3.3,7,12.3c0,0,0.5,53.5,0.5,53.5v43.8c0,23.3,0,43.3-1.3,53.6
	c-1.1,7.6-2.2,11.3-5.7,12c-0.1,0-7.1,1-7.1,1c-3.2,0.3-3.9,1.8-3.9,3.4c0,3.9,4.4,3.9,5.9,3.9l20.3-0.6l6.9,0l27.7,0.6
	c5.3,0,5.9-2.7,5.9-3.9c0-1.6-1-3.2-3.8-3.4l-10.9-1c-5.9-0.8-7.4-4.7-8.1-12c-1.3-10.3-1.3-30.4-1.3-53.7v-43.8l0.5-53.5
	c0.5-8.4,2.3-11.5,7.6-12.5c0,0,5.9-0.7,5.9-0.7c2.5-0.2,3.9-1.4,3.9-3.4c0-3.9-4.5-3.9-5.9-3.9L2604.1,300.3z M2833,300.3h-9.4
	l-18.6-0.5c-2.5,0-7.3,0-7.3,3.9c0,1.3,0.5,3.2,4.6,3.4l8.8,0.8c2,0.3,2.4,2.3,2,3.9l-2.2,8.8c-5,16.5-35.8,97-51.2,133.4
	c-3.1-8.3-46.1-122.8-46.1-122.8c-3.6-9.3-6.6-17.1-6.6-19.9c0-1.3,0.3-2.9,2.2-3.3l8.6-1c4.3-0.4,4.4-2.6,4.4-3.7
	c0-3.6-5.4-3.6-8.6-3.6l-18,0.5h-11.2l-22.9-0.5c-3.5,0-8.3,0-8.3,3.6c0,2.2,1.1,3.4,3.9,3.7l8.9,0.9c7.5,1.3,11.3,4.4,16.7,18
	l61.4,153.8c4.6,11.6,6,15.1,10.2,15.1c3.1,0,4.2-2.5,7.8-10.7l4.3-9.4l30.7-71.9l14.7-35.5l14.6-35.2c6.5-16.4,10.1-20.5,13-22.5
	c4.2-2.7,9.2-2.7,10.8-2.7c4.2,0,4.9-2.3,4.9-3.7c0-2.4-2.1-3.6-6.1-3.6L2833,300.3z M3211.8,342.9c0,17,5.6,32.9,33,55.4l11.1,9.2
	c21.9,18,27.9,27.3,27.9,43.3c0,15.4-11.5,31.1-33.6,31.1c-9,0-30.6-2.3-35-23.8l-0.6-8.8c0-1.4,0-4.6-3.6-4.6
	c-3.3,0-3.7,3.7-3.9,5.6c0,0.1-0.2,2.5-0.2,2.5l-1.1,24.1c0,6.7,0.2,8.9,4.8,11.1c9.6,4.7,20.8,6.9,34.2,6.9
	c15.1,0,28.5-3.7,38.6-10.8c16.2-11.5,22-29.6,22-42.8c0-19.5-6.1-35.5-37.1-59.9l-6.9-5.5c-23.8-19.5-29.6-27.4-29.6-40.3
	c0-16.1,11.5-27,28.6-27c20.6,0,27.4,8.6,29.4,12.2c1.3,2.5,2.8,8.9,3,11.7c0.2,1.8,0.6,5,3.9,5c3.7,0,3.7-5,3.7-7.7l0.8-24.4
	l0.1-1.9c-0.1-3.3-3.1-3.5-4.3-3.6c-1.2-0.1-8.3-1.2-8.3-1.2c-7.1-1.7-14.6-2.6-23.5-2.6C3233.2,296.3,3211.8,315,3211.8,342.9
	 M3744.7,300.3l-10.5,0l-12.4-0.6c-5.1,0-5.9,2.1-5.9,3.4c0,2.6,2.5,3.4,4.8,4.2c1.2,0.5,2.9,0.8,2.9,5.2c0,3.6-1.3,7.5-4,11.7
	c-4.2,7-32.1,55-39.8,70.1c-8.2-13.8-40.2-68.9-43.9-75.5c-1.9-3.5-3-6.2-3-8.8c0-1.1,0.7-2.1,2.2-2.8c0,0,1.3-0.5,1.3-0.5
	c1.6-0.6,3.5-1.3,3.5-3.4c0-2.4-1.7-3.6-5.1-3.6l-17.5,0.6l-9.2,0l-18.7-0.6c-4.9,0-5.2,3-5.2,3.6c0,2.1,1.8,3.6,4.4,3.6
	c1.7,0,6.2,1.3,9.7,3.7c4.9,3.3,11,10,16.3,17.9c9,13.2,42.1,67.6,43.6,71.3c3.3,7.3,5.6,12.4,5.6,25.3v21.4l-0.8,24.7
	c-0.4,4.9-1.7,11.1-6.2,12c0,0-7.1,0.9-7.1,0.9c-3.3,0.4-3.9,1.7-3.9,3.4c0,3.8,4.4,3.8,5.9,3.8l20.3-0.6l6.9,0l27.6,0.6
	c5.3,0,5.9-2.7,5.9-3.8c0-1.7-1.2-3.4-3.9-3.4l-10.9-1c-5.5-0.8-8-4.2-8.6-12l-0.7-24.7v-21.4c0-8,0-15.6,3.6-24.1
	c4.2-10.2,38.8-68.4,47.1-78.6c5.6-6.8,8.2-9.5,12.7-12.2c3.4-2.2,7.8-3.2,10.4-3.2c3.8,0,5.1-2.1,5.1-3.9c0-1.5-1.3-3.4-5.1-3.4
	L3744.7,300.3z M3836.2,395.3c0-38.3,27.1-99,99.8-99c59.5,0,99.5,38.2,99.5,95c0,60-42.5,103.6-101,103.6
	C3867,494.9,3836.2,443.2,3836.2,395.3 M3863.6,388.3c0,54.9,31.9,93.3,77.5,93.3c11.1,0,66.7-4,66.7-83.3
	c0-61.7-38.2-89.8-73.7-89.8C3890.7,308.5,3863.6,339.1,3863.6,388.3 M4156.1,300.1c-0.9,0.1-2.9,0.1-2.9,0.1c0,0-61,0.2-61,0.2
	l-3.3-0.1l-24.8-0.6c-1.4,0-5.9,0-5.9,3.9c0,1.9,1.2,3.2,3.9,3.4l8,0.7c6.7,0.9,8.8,4.2,9.2,12.5c0,0,0.5,53.6,0.5,53.6v43.8
	c0,23.2,0,43.3-1.2,53.6c-1,7.4-2.2,11.3-5.7,12.1c0,0-7.1,1-7.1,1c-3.2,0.3-3.9,1.7-3.9,3.4c0,3.9,4.4,3.9,5.9,3.9l20.3-0.6l7.1,0
	l27.6,0.6c5.3,0,5.9-2.7,5.9-3.9c0-1.7-1-3.2-3.9-3.4l-10.9-1c-5.9-0.8-7.4-4.7-8-12c-1.3-10.3-1.3-30.4-1.3-53.7v-21.2
	c9.2-0.4,31.6-0.3,37.1,0.4c6.6,0.8,10.4,4.8,11.4,7.7c1,2.9,1.3,6.3,1.3,8.6s1.5,3.9,3.6,3.9c3.6,0,3.6-4.3,3.6-6.6l1-16.4l2-14.1
	c0.4-3.5-2.4-3.9-3.1-3.9c-1.8,0-2.9,1.4-3.9,2.7c-2.1,2.9-4.3,3.8-10.5,4.2l-11,0.3l-31.8,0.2l0.1-68.9c0.3-0.8,38.5-0.1,38.5-0.1
	c8.9,0.2,14.4,3.7,15.3,6.9c0.8,2.4,2,8.7,2,8.7c0.9,4.9,3,4.8,3.6,4.8c1.3,0,3.3-0.4,3.9-4.2c0-0.1,0.8-13.5,1.3-16.7
	c0.3-1.6,1.4-8.4,1.4-8.4l0.6-3.3c0.4-2.8-1.5-4.3-3.4-4.2C4165.5,297.9,4160.2,299.8,4156.1,300.1z M2309.5,300.3l-7.7,0.1
	l-22.9-0.6c-1.4,0-5.8,0-5.8,3.9c0,1.9,1.7,3.4,3.8,3.4l8,0.6c7.4,0.9,8.8,4.6,9.3,12.5c0,0.1,0.5,53.5,0.5,53.5v31.1
	c0,29.7-4.2,47.5-14,59.7c-8.9,10.6-23.2,17.2-37.5,17.2c-14.1,0-24.5-2.2-36.3-13.2c-8.9-8.5-18-22.3-18-60v-34.8l0.5-53.5
	c0.5-8.6,2.4-11.7,7.6-12.4c0,0,5.9-0.7,5.9-0.7c2.4-0.3,3.9-1.4,3.9-3.4c0-3.9-4.4-3.9-5.9-3.9l-18.4,0.5l-11.3,0.1l-23.4-0.6
	c-1.5,0-5.9,0-5.9,3.9c0,1.9,1.7,3.4,3.9,3.4l8,0.6c6.5,0.7,8.8,4.1,9.2,12.5l0.5,53.5v36.3c0,40.2,11.9,56.8,22.2,66.8
	c16.8,15.8,40.1,18.2,52.4,18.2c13.4,0,33.4-1.9,52.5-18.9c20.8-18.5,23.5-50.2,23.5-75.7v-26.6l0.5-53.5c0.5-8.5,2.3-11.5,7.7-12.4
	c0.1,0,5.8-0.7,5.8-0.7c2.5-0.2,3.9-1.4,3.9-3.4c0-3.9-4.4-3.9-5.8-3.9L2309.5,300.3z M1519.7,301.7c-0.3,1-5.8,24-5.8,27
	c0,3.1,1.7,4.1,3.2,4.1c2.6,0,3.6-2.1,4.2-3.7c0,0.1,4-7.3,4-7.3c3.5-5.2,8.8-6.8,23.8-7.1c0,0,27.4-0.4,34.8-0.5v103.2
	c0,23.3,0,43.4-1.2,53.6c-1,7.4-2.2,11.3-5.7,12.1c-5.8,1-7.1,1-7.1,1c-2.7,0-3.9,1.7-3.9,3.4c0,3.9,4.4,3.9,5.9,3.9l20.3-0.6l6.9,0
	l27.7,0.6c5.3,0,5.9-2.7,5.9-3.9c0-1.7-1.2-3.4-3.9-3.4l-10.9-1c-5.9-0.8-7.4-4.7-8-12c-1.3-10.4-1.3-30.4-1.3-53.7V314.2
	c3.4,0.1,29.4,0.5,29.4,0.5c23.9,0.5,27.9,6.4,28.7,12.1l0.2,2.7c0.2,2.4,0.5,5.9,3.9,5.9c0.6,0,3.7-0.2,3.7-5.1l0.2-7.9l0.5-19.3
	c0-1.5,0-5-3.1-5l-3,0.5c-3.5,0.7-10.1,2-21.6,2h-93.2c0,0-17.4-0.9-19.4-1.2c-2-0.3-8-2-8-2l-3-0.9c-0.1,0-0.2,0-0.2,0
	C1521.5,296.4,1520.6,299.1,1519.7,301.7 M2972.9,299c-5,1-10.3,1.2-10.3,1.2c0,0-56.8,0.2-56.8,0.2l-3.3-0.1l-24.7-0.6
	c-1.5,0-5.9,0-5.9,3.9c0,2,1.6,3.3,3.9,3.4l8,0.6c6.4,0.5,8.8,4.2,9.2,12.5l0.5,53.5v43.8c0,23.3,0,43.3-1.2,53.6
	c-1,7.4-2.2,11.3-5.7,12.1c-1,0.1-7.1,0.9-7.1,0.9c-3,0.2-3.8,1.7-3.8,3.4c0,3.9,4.3,3.9,5.8,3.9l20.2-0.6l13.6,0.2l51.9,1.1
	c9.8,0,13.1,0,15.2-7.8c1.3-5.2,3.3-22.3,3.3-24.6c0-1.8,0-5.6-3.4-5.6c-3.1,0-3.7,3.4-4,5.3c-1.6,9.6-4.4,14.1-10.1,16.5
	c-6.1,2.6-16.8,2.6-23.1,2.6c-24,0-26.3-3-26.9-18.6l0-31.4l0-10.9v-21.9c0,0.1,35.2,1.4,35.2,1.4c8.4,0.8,10.8,4.4,11.3,7.3
	c0.5,2.9,0.9,7.7,0.9,7.7c0.3,2.7,1.5,4.1,3.6,4.1c3.7,0,3.7-4.4,3.7-6.6l1-15.7l2-14.1c0-3.6-2.5-3.9-3.1-3.9
	c-1.3,0.1-3.3,2.5-5,3.7c-4,2.3-3.9,2.5-10.6,3.1l-39.3,0.5l0.4-69.2c3-0.6,29.4-0.4,33.4,0.1c13.6,1.5,14.9,4.5,16.2,7.3
	c0-0.1,1.3,8.2,1.3,8.2c0,4.6,2.7,5.1,3.9,5.1c1.3,0,2.9-0.8,3.6-4.3c0-0.1,1-12.6,1-12.6l0.3-4c0,0,1.5-8.5,1.5-8.5l0.5-3.3
	c0-3.9-2.1-4.1-2.9-4.1C2976.1,297.8,2975.1,298.5,2972.9,299z M3361.2,300.3h-7.8l-21.3-0.6c-1.4,0-5.8,0-5.8,3.9
	c0,1.9,1.2,3.2,3.8,3.4l7.3,0.9c3.8,0.5,6.5,3.3,7,12.3c0,0,0.5,53.5,0.5,53.5v43.8c0,23.3,0,43.3-1.3,53.6
	c-1.1,7.6-2.2,11.3-5.7,12c-0.1,0-7.1,1-7.1,1c-3.2,0.3-3.9,1.8-3.9,3.4c0,3.9,4.4,3.9,5.9,3.9l20.3-0.6l6.9,0l27.7,0.6
	c5.3,0,5.9-2.7,5.9-3.9c0-1.6-1-3.2-3.8-3.4l-10.9-1c-5.9-0.8-7.4-4.7-8.1-12c-1.3-10.3-1.3-30.4-1.3-53.7v-43.8l0.5-53.5
	c0.5-8.4,2.3-11.5,7.6-12.5c0,0,5.9-0.7,5.9-0.7c2.5-0.2,3.9-1.4,3.9-3.4c0-3.9-4.5-3.9-5.9-3.9L3361.2,300.3z M3410.1,301.7
	c-0.3,1-5.8,24-5.8,27c0,3.1,1.7,4.1,3.2,4.1c2.6,0,3.6-2.1,4.2-3.7c0,0.1,4-7.3,4-7.3c3.5-5.2,8.8-6.8,23.8-7.1
	c0,0,27.4-0.4,34.8-0.5v103.2c0,23.3,0,43.4-1.2,53.6c-1,7.4-2.2,11.3-5.7,12.1c-5.8,1-7.1,1-7.1,1c-2.7,0-3.9,1.7-3.9,3.4
	c0,3.9,4.4,3.9,5.9,3.9l20.3-0.6l6.9,0l27.7,0.6c5.3,0,5.9-2.7,5.9-3.9c0-1.7-1.2-3.4-3.9-3.4l-10.9-1c-5.9-0.8-7.4-4.7-8-12
	c-1.3-10.4-1.3-30.4-1.3-53.7V314.2c3.4,0.1,29.4,0.5,29.4,0.5c23.9,0.5,27.9,6.4,28.7,12.1l0.2,2.7c0.2,2.4,0.5,5.9,3.9,5.9
	c0.6,0,3.7-0.2,3.7-5.1l0.2-7.9l0.5-19.3c0-1.5,0-5-3.1-5l-3,0.5c-3.5,0.7-10.1,2-21.6,2h-93.2c0,0-17.4-0.9-19.4-1.2
	c-2-0.3-8-2-8-2l-3-0.9c-0.1,0-0.2,0-0.2,0C3411.9,296.4,3411,299.1,3410.1,301.7 M3190.5,487.5c0,3.8-4.8,3.8-7.9,3.8h-9.4
	c-14,0-20.6-1.2-27.5-4.9c-10.2-5.5-18.4-16.2-30.8-32.6c0,0-29.8-41.8-30.9-41.9c0,0-31.9-0.5-31.7-0.4v6c0,23.3,0,43.4,1.3,53.7
	c0.7,7.3,2.1,11.2,8,12l10.9,1c3.2,0.2,3.9,1.7,3.9,3.4c0,1.1-0.6,3.8-6,3.8l-27.6-0.6c0,0-3-0.1-3.9-0.1l-22.4,0.7
	c-1.4,0-5.9,0-5.9-3.8c0-1.7,0.7-3.1,3.9-3.4c0,0,7-0.9,7.1-1c3.6-0.7,4.7-4.8,5.7-12.1c1.3-10.3,1.3-30.4,1.3-53.6v-43.7l-0.5-53.5
	c-0.5-8.3-2.7-11.7-9.3-12.5l-7.9-0.6c-2.4-0.1-3.9-1.4-3.9-3.4c0-3.9,4.4-3.9,5.9-3.9l24.8,0.6l11.6-0.1l21-0.5
	c15.3,0,32.7,1.3,46.6,11.2c6.7,4.8,17.9,17.7,17.9,35.4c0,20.3-9.5,38.6-29.5,57.5c1.4,1.8,4.8,6.2,4.8,6.2
	c17.6,22.6,32.8,42.2,45.8,56c12.7,13.4,22.8,16.3,29.2,17.3l1.2,0.2C3188.6,483.9,3190.5,485.6,3190.5,487.5z M3110.2,359.3
	c0-29.9-15.3-47.8-41.1-47.8c-7.8,0-14.1,0.8-16,1.4c-0.6,0.2-0.8,0.5-0.8,1.2v81.2c0,0.5,0.1,0.9,0.8,1.4c3,1.7,13.4,3.6,25.1,3.6
	c5.2,0,12-0.5,17.5-4.4C3104.8,389.9,3110.2,376.2,3110.2,359.3z"/>
</svg>
